<?xml version="1.0" standalone="no"?>
<!DOCTYPE svg PUBLIC "-//W3C//DTD SVG 1.1//EN" "http://www.w3.org/Graphics/SVG/1.1/DTD/svg11.dtd" >
<svg>
<metadata>
Created by FontForge 20110222 at Fri Sep 12 05:39:38 2014
 By Orthosie Webhosting
Copyright (c) 2013 by Cannibal. All rights reserved.
</metadata>
<defs>
<font id="CFAstyStd-Bold" horiz-adv-x="681" >
  <font-face 
    font-family="CF Asty Std"
    font-weight="700"
    font-stretch="normal"
    units-per-em="1000"
    panose-1="0 0 5 3 3 0 0 2 0 4"
    ascent="800"
    descent="-200"
    x-height="510"
    cap-height="700"
    bbox="-239 -351 1153 935"
    underline-thickness="20"
    underline-position="-113"
    stemh="144"
    stemv="158"
    unicode-range="U+0020-FB04"
  />
<missing-glyph horiz-adv-x="305" 
 />
    <glyph glyph-name="fi" unicode="fi" horiz-adv-x="638" 
d="M372 745l-15 -124c-17 6 -37 9 -52 9c-39 0 -62 -22 -62 -72v-48h323v-510h-150v384h-173v-384h-150v384h-63v126h63v61c0 105 64 189 176 189c41 0 76 -6 103 -15zM578 663c0 -48 -39 -87 -87 -87s-87 39 -87 87s39 87 87 87s87 -39 87 -87z" />
    <glyph glyph-name="fl" unicode="fl" horiz-adv-x="632" 
d="M416 0v750h151v-750h-151zM93 0v383h-63v127h63v60c0 106 64 190 176 190c49 0 88 -8 116 -20l-15 -126c-19 8 -45 14 -64 14c-39 0 -62 -21 -62 -71v-47h115v-127h-115v-383h-151z" />
    <glyph glyph-name="ff" unicode="ff" horiz-adv-x="718" 
d="M417 0v384h-174v-384h-150v384h-63v126h63v41c0 114 88 199 212 199c52 0 113 -16 157 -46c29 35 78 56 131 56c48 0 87 -8 115 -20l-15 -124c-19 8 -45 14 -64 14c-39 0 -62 -22 -62 -72v-48h115v-126h-115v-384h-150zM243 535v-25h174v61c0 10 0 15 1 25
c-21 13 -53 22 -85 22c-49 0 -90 -28 -90 -83z" />
    <glyph glyph-name="ffi" unicode="ffi" horiz-adv-x="962" 
d="M696 745l-15 -124c-17 6 -37 9 -52 9c-39 0 -62 -22 -62 -72v-48h323v-510h-150v384h-173v-384h-150v384h-174v-384h-150v384h-63v126h63v41c0 114 88 199 212 199c52 0 113 -16 157 -46c30 34 74 56 131 56c41 0 76 -6 103 -15zM902 663c0 -48 -39 -87 -87 -87
s-87 39 -87 87s39 87 87 87s87 -39 87 -87zM243 535v-25h174v61c0 13 1 18 2 25c-21 13 -54 22 -86 22c-49 0 -90 -28 -90 -83z" />
    <glyph glyph-name="ffl" unicode="ffl" horiz-adv-x="958" 
d="M742 0v750h151v-750h-151zM417 0v384h-174v-384h-150v384h-63v126h63v41c0 114 88 199 212 199c52 0 113 -16 157 -46c29 35 78 56 131 56c48 0 87 -8 115 -20l-15 -124c-19 8 -45 14 -64 14c-39 0 -62 -22 -62 -72v-48h115v-126h-115v-384h-150zM243 535v-25h174v61
c0 10 0 15 1 25c-21 13 -53 22 -85 22c-49 0 -90 -28 -90 -83z" />
    <glyph glyph-name=".notdef" horiz-adv-x="305" 
 />
    <glyph glyph-name="breve" unicode="&#x2d8;" horiz-adv-x="503" 
d="M251 540c-106 0 -180 59 -189 160h103c12 -36 36 -60 86 -60s74 24 86 60h103c-9 -101 -82 -160 -189 -160z" />
    <glyph glyph-name="dotaccent" unicode="&#x2d9;" horiz-adv-x="503" 
d="M339 663c0 -48 -39 -87 -88 -87c-48 0 -87 39 -87 87c0 49 39 88 87 88c49 0 88 -39 88 -88z" />
    <glyph glyph-name="ring" unicode="&#x2da;" horiz-adv-x="503" 
d="M251 573c-65 0 -123 52 -123 118c0 65 58 121 123 121s124 -54 124 -120c0 -65 -59 -119 -124 -119zM251 632c34 0 61 25 61 59c0 33 -27 63 -61 63s-61 -28 -61 -62c0 -33 27 -60 61 -60z" />
    <glyph glyph-name="hungarumlaut" unicode="&#x2dd;" horiz-adv-x="503" 
d="M31 592l103 178l132 -58l-128 -120h-107zM232 592l103 178l133 -58l-129 -120h-107z" />
    <glyph glyph-name="ogonek" unicode="&#x2db;" horiz-adv-x="503" 
d="M359 -161c-13 -1 -48 -5 -83 -5c-94 0 -133 39 -133 111c0 22 7 46 16 65h101c-4 -14 -6 -27 -6 -39c0 -38 1 -67 63 -67c15 0 38 4 42 4v-69z" />
    <glyph glyph-name="caron" unicode="&#x2c7;" horiz-adv-x="503" 
d="M448 722l-121 -158h-152l-120 158h128l69 -86l69 86h127z" />
    <glyph glyph-name="dotlessi" unicode="&#x131;" horiz-adv-x="295" 
d="M71 0v510h152v-510h-152z" />
    <glyph glyph-name="fraction" unicode="&#x2044;" horiz-adv-x="204" 
d="M-161 -38l447 817l79 -43l-447 -817z" />
    <glyph glyph-name="Lslash" unicode="&#x141;" horiz-adv-x="613" 
d="M40 368l74 22v310h157v-263l159 47v-145l-159 -47v-146h317v-146h-474v246l-74 -22v144z" />
    <glyph glyph-name="lslash" unicode="&#x142;" horiz-adv-x="380" 
d="M114 414v336h152v-282l74 27v-145l-74 -27v-323h-152v270l-74 -26v145z" />
    <glyph glyph-name="Zcaron" unicode="&#x17d;" horiz-adv-x="665" 
d="M534 911l-121 -158h-152l-120 158h128l69 -86l69 86h127zM616 0h-566v144l364 412h-353v144h544v-147l-357 -409h368v-144z" />
    <glyph glyph-name="Z" unicode="Z" horiz-adv-x="665" 
d="M616 0h-566v144l364 412h-353v144h544v-147l-357 -409h368v-144z" />
    <glyph glyph-name="zcaron" unicode="&#x17e;" horiz-adv-x="520" 
d="M462 722l-121 -158h-152l-120 158h128l69 -86l69 86h127zM40 0v110l242 270h-233v130h428v-114l-243 -269h247v-127h-441z" />
    <glyph glyph-name="z" unicode="z" horiz-adv-x="520" 
d="M40 0v110l242 270h-233v130h428v-114l-243 -269h247v-127h-441z" />
    <glyph glyph-name="exclam" unicode="!" horiz-adv-x="331" 
d="M245 241h-158v459h158v-459zM256 86c0 -52 -39 -91 -90 -91c-52 0 -91 39 -91 91c0 51 39 91 91 91c51 0 90 -40 90 -91z" />
    <glyph glyph-name="quotedbl" unicode="&#x22;" horiz-adv-x="493" 
d="M293 417v283h160v-55l-82 -228h-78zM75 417v283h160v-55l-82 -228h-78z" />
    <glyph glyph-name="numbersign" unicode="#" horiz-adv-x="598" 
d="M300 0l26 190h-97l-26 -190h-105l25 190h-83v101h98l15 118h-82v101h97l26 190h105l-25 -190h96l26 190h106l-26 -190h82v-101h-96l-16 -118h82v-101h-96l-26 -190h-106zM259 409l-16 -118h97l16 118h-97z" />
    <glyph glyph-name="dollar" unicode="$" horiz-adv-x="598" 
d="M331 773v-74c82 -3 158 -30 209 -75l-87 -114c-29 24 -77 45 -122 49v-136c9 -2 17 -5 26 -8c83 -26 201 -72 201 -195c0 -146 -111 -209 -227 -219v-91h-54v90c-87 4 -185 29 -248 87l109 119c29 -32 90 -54 139 -59v143c-90 29 -219 77 -219 202c0 139 96 198 219 207
v74h54zM400 206c0 37 -30 54 -69 67v-125c40 5 69 22 69 58zM219 497c0 -27 24 -43 58 -56v116c-31 -6 -58 -22 -58 -60z" />
    <glyph glyph-name="percent" unicode="%" horiz-adv-x="805" 
d="M122 0l458 700h106l-458 -700h-106zM200 345c-89 0 -155 67 -155 180c0 111 67 180 155 180c87 0 155 -68 155 -180s-67 -180 -155 -180zM200 433c30 0 56 27 56 92c0 64 -26 92 -56 92c-31 0 -56 -27 -56 -92c0 -64 24 -92 56 -92zM605 -5c-89 0 -155 67 -155 180
c0 111 67 180 155 180c87 0 155 -68 155 -180s-67 -180 -155 -180zM605 83c31 0 56 27 56 92c0 64 -25 92 -56 92s-56 -27 -56 -92c0 -64 24 -92 56 -92z" />
    <glyph glyph-name="ampersand" unicode="&#x26;" horiz-adv-x="719" 
d="M580 146l137 -146h-166l-55 59c-55 -43 -121 -69 -189 -69c-145 0 -252 59 -252 189c0 97 69 158 141 203c-37 45 -68 101 -68 156c0 120 89 172 187 172c115 0 196 -60 196 -168c0 -86 -59 -142 -128 -186l109 -115c25 43 43 90 54 135h134c-15 -83 -50 -163 -100 -230z
M214 196c0 -59 52 -81 97 -81c37 0 71 13 101 34l-135 145c-35 -22 -63 -49 -63 -98zM372 533c0 43 -24 60 -54 60s-57 -19 -57 -63c0 -32 22 -64 41 -87c40 28 70 61 70 90z" />
    <glyph glyph-name="quotesingle" unicode="'" horiz-adv-x="274" 
d="M75 417v283h160v-55l-82 -228h-78z" />
    <glyph glyph-name="parenleft" unicode="(" horiz-adv-x="371" 
d="M331 -103l-120 -56c-94 141 -151 279 -151 444s57 303 151 444l120 -56c-80 -129 -130 -233 -130 -388s50 -259 130 -388z" />
    <glyph glyph-name="parenright" unicode=")" horiz-adv-x="371" 
d="M160 -159l-120 56c79 129 129 233 129 388s-50 259 -129 388l120 56c94 -141 151 -279 151 -444s-57 -303 -151 -444z" />
    <glyph glyph-name="asterisk" unicode="*" horiz-adv-x="424" 
d="M212 462l-54 -89l-83 59l67 81l-102 25l32 97l98 -42l-9 107h102l-9 -107l98 40l32 -96l-103 -24l69 -81l-83 -60z" />
    <glyph glyph-name="plus" unicode="+" horiz-adv-x="648" 
d="M598 233h-202v-204h-144v204h-202v140h202v204h144v-204h202v-140z" />
    <glyph glyph-name="comma" unicode="," horiz-adv-x="291" 
d="M52 -138l44 146c-25 16 -41 44 -41 78c0 51 39 91 90 91s91 -39 91 -88c0 -13 0 -32 -16 -58l-108 -169h-60z" />
    <glyph glyph-name="hyphen" unicode="-" horiz-adv-x="409" 
d="M50 229v148h309v-148h-309z" />
    <glyph glyph-name="period" unicode="." horiz-adv-x="291" 
d="M236 86c0 -52 -39 -91 -90 -91c-52 0 -91 39 -91 91c0 51 39 91 91 91c51 0 90 -40 90 -91z" />
    <glyph glyph-name="slash" unicode="/" horiz-adv-x="514" 
d="M-28 -160l437 941h133l-437 -941h-133z" />
    <glyph glyph-name="zero" unicode="0" 
d="M341 -10c-178 0 -281 155 -281 360c0 203 104 360 281 360c175 0 280 -155 280 -360c0 -203 -103 -360 -280 -360zM341 134c82 0 116 88 116 216c0 126 -35 216 -116 216c-82 0 -117 -87 -117 -216c0 -127 34 -216 117 -216z" />
    <glyph glyph-name="one" unicode="1" horiz-adv-x="433" 
d="M175 539l-92 -45l-58 116l166 90h142v-700h-158v539z" />
    <glyph glyph-name="two" unicode="2" horiz-adv-x="578" 
d="M40 118l208 194c80 75 114 112 114 166c0 52 -32 88 -87 88c-50 0 -75 -30 -82 -73l-152 18c16 132 108 199 240 199c123 0 245 -73 245 -223c0 -108 -65 -170 -178 -270l-88 -78h269v-139h-489v118z" />
    <glyph glyph-name="three" unicode="3" horiz-adv-x="580" 
d="M540 200c0 -143 -121 -210 -260 -210c-124 0 -221 62 -250 191l155 30c12 -48 39 -77 102 -77c51 0 89 33 89 79c0 60 -43 80 -109 80h-55v132h49c69 0 102 28 102 72c0 43 -31 69 -79 69c-42 0 -73 -27 -83 -63l-151 30c33 117 116 177 236 177c126 0 238 -54 238 -190
c0 -70 -52 -133 -125 -152c95 -17 141 -86 141 -168z" />
    <glyph glyph-name="four" unicode="4" horiz-adv-x="630" 
d="M580 141h-83v-141h-158v141h-309v128l289 431h178v-431h83v-128zM339 269v240l-160 -240h160z" />
    <glyph glyph-name="five" unicode="5" horiz-adv-x="608" 
d="M40 150l145 48c17 -42 54 -66 99 -66c59 0 101 45 101 108c0 59 -35 106 -107 106c-43 0 -97 -16 -130 -33l-79 52l16 335h429v-137h-296l-4 -95c26 6 57 9 92 9c136 0 242 -82 242 -243c0 -148 -110 -244 -271 -244c-116 0 -201 55 -237 160z" />
    <glyph glyph-name="six" unicode="6" horiz-adv-x="609" 
d="M306 -10c-148 0 -266 95 -266 241c0 103 36 162 83 233l159 236h187l-163 -242l1 -1c15 3 32 5 46 5c133 0 216 -102 216 -231c0 -146 -115 -241 -263 -241zM415 237c0 63 -42 110 -109 110s-108 -46 -108 -110c0 -63 41 -107 108 -107s109 44 109 107z" />
    <glyph glyph-name="seven" unicode="7" horiz-adv-x="546" 
d="M516 563l-247 -563h-177l251 557h-323v143h496v-137z" />
    <glyph glyph-name="eight" unicode="8" horiz-adv-x="640" 
d="M320 -10c-155 0 -270 83 -270 207c0 84 37 138 110 172v2c-53 27 -89 71 -89 145c0 106 101 194 249 194c149 0 249 -88 249 -194c0 -74 -37 -118 -90 -145v-2c70 -38 111 -88 111 -172c0 -124 -114 -207 -270 -207zM320 413c61 0 100 33 100 81c0 42 -37 77 -100 77
c-62 0 -100 -35 -100 -77c0 -48 40 -81 100 -81zM320 129c76 0 118 30 118 80c0 54 -49 83 -118 83s-118 -29 -118 -83c0 -50 43 -80 118 -80z" />
    <glyph glyph-name="nine" unicode="9" horiz-adv-x="609" 
d="M140 0l163 242v0l-1 1c-15 -3 -32 -5 -46 -5c-133 0 -216 102 -216 231c0 146 115 241 263 241s266 -95 266 -241c0 -103 -36 -162 -83 -233l-159 -236h-187zM193 463c0 -63 43 -110 110 -110s108 46 108 110c0 63 -41 107 -108 107s-110 -44 -110 -107z" />
    <glyph glyph-name="colon" unicode=":" horiz-adv-x="291" 
d="M236 86c0 -52 -39 -91 -90 -91c-52 0 -91 39 -91 91c0 51 39 91 91 91c51 0 90 -40 90 -91zM236 429c0 -51 -39 -90 -90 -90c-52 0 -91 39 -91 90c0 52 39 91 91 91c51 0 90 -39 90 -91z" />
    <glyph glyph-name="semicolon" unicode=";" horiz-adv-x="291" 
d="M236 429c0 -51 -39 -90 -90 -90c-52 0 -91 39 -91 90c0 52 39 91 91 91c51 0 90 -39 90 -91zM52 -138l44 146c-25 16 -41 44 -41 78c0 51 39 91 91 91c50 0 90 -39 90 -88c0 -13 0 -32 -16 -58l-108 -169h-60z" />
    <glyph glyph-name="less" unicode="&#x3c;" horiz-adv-x="669" 
d="M609 16l-559 212v140l559 212v-143l-381 -138l381 -138v-145z" />
    <glyph glyph-name="equal" unicode="=" horiz-adv-x="648" 
d="M59 337v135h530v-135h-530zM59 132v135h530v-135h-530z" />
    <glyph glyph-name="greater" unicode="&#x3e;" horiz-adv-x="670" 
d="M620 228l-560 -212v145l381 138l-381 138v143l560 -212v-140z" />
    <glyph glyph-name="question" unicode="?" horiz-adv-x="548" 
d="M179 486l-149 29c21 127 109 195 241 195c117 0 237 -71 237 -203c0 -44 -21 -93 -52 -123l-73 -68c-28 -27 -37 -46 -37 -68v-26h-152v34c0 39 8 73 32 95l98 92c19 18 28 37 28 58c-1 44 -43 71 -83 71c-61 0 -84 -39 -90 -86zM365 86c0 -52 -40 -91 -91 -91
c-52 0 -91 39 -91 91c0 51 39 91 91 91c51 0 91 -40 91 -91z" />
    <glyph glyph-name="at" unicode="@" horiz-adv-x="976" 
d="M570 327c0 59 -32 90 -75 90c-68 0 -123 -62 -123 -154c0 -48 24 -87 71 -87c71 0 107 41 120 91c5 19 7 39 7 60zM718 59c-88 0 -129 44 -133 99c-23 -38 -81 -85 -168 -85c-80 0 -170 61 -170 184c0 128 87 263 236 263c60 0 108 -17 129 -64l14 51h107l-63 -252
c-5 -22 -14 -50 -14 -73c0 -28 12 -61 63 -61c96 0 137 119 137 209c0 166 -137 314 -352 314c-210 0 -385 -167 -385 -386c0 -199 147 -356 363 -356c92 0 162 22 234 63l33 -54c-79 -47 -164 -75 -268 -75c-251 0 -431 189 -431 421c0 231 187 453 453 453
c251 0 423 -171 423 -375c0 -116 -66 -276 -208 -276z" />
    <glyph glyph-name="A" unicode="A" horiz-adv-x="763" 
d="M176 0h-167l304 703h138l303 -703h-171l-59 144h-289zM379 499l-91 -225h183l-90 225h-2z" />
    <glyph glyph-name="B" unicode="B" horiz-adv-x="687" 
d="M238 417h116c67 0 102 29 102 77c0 46 -20 74 -84 74h-134v-151zM238 132h150c67 0 107 28 107 81c0 47 -39 75 -117 75h-140v-156zM506 373v-2c81 -20 147 -79 147 -175c0 -122 -102 -196 -260 -196h-313v700h304c129 0 230 -51 230 -180c0 -79 -55 -126 -108 -147z" />
    <glyph glyph-name="C" unicode="C" horiz-adv-x="718" 
d="M568 206l120 -91c-63 -84 -166 -125 -265 -125c-222 0 -373 156 -373 360s149 360 370 360c97 0 194 -30 252 -108l-117 -95c-30 34 -74 59 -130 59c-116 0 -211 -85 -211 -216s96 -216 206 -216c62 0 116 30 148 72z" />
    <glyph glyph-name="D" unicode="D" horiz-adv-x="779" 
d="M729 350c0 -231 -180 -350 -408 -350h-241v700h241c228 0 408 -119 408 -350zM565 350c0 145 -108 206 -246 206h-81v-412h85c138 0 242 61 242 206z" />
    <glyph glyph-name="E" unicode="E" horiz-adv-x="642" 
d="M80 0v700h503v-143h-345v-128h307v-139h-307v-146h354v-144h-512z" />
    <glyph glyph-name="F" unicode="F" horiz-adv-x="614" 
d="M579 556h-341v-134h281v-140h-281v-282h-158v700h499v-144z" />
    <glyph glyph-name="G" unicode="G" horiz-adv-x="759" 
d="M683 609l-106 -112c-43 42 -77 69 -156 69c-112 0 -207 -85 -207 -216s92 -216 203 -216c68 0 107 14 136 29v117h-126v133h278v-344c-98 -54 -180 -79 -288 -79c-221 0 -367 156 -367 360s149 360 373 360c112 0 187 -34 260 -101z" />
    <glyph glyph-name="H" unicode="H" horiz-adv-x="759" 
d="M80 0v700h158v-269h284v269h158v-700h-158v288h-284v-288h-158z" />
    <glyph glyph-name="I" unicode="I" horiz-adv-x="317" 
d="M80 0v700h158v-700h-158z" />
    <glyph glyph-name="J" unicode="J" horiz-adv-x="537" 
d="M9 149l148 44c10 -32 36 -59 68 -59c31 0 74 14 74 106v460h158v-459c0 -172 -89 -251 -231 -251c-108 0 -185 52 -217 159z" />
    <glyph glyph-name="K" unicode="K" horiz-adv-x="726" 
d="M238 700v-301l275 301h191l-284 -295l296 -405h-189l-212 295l-77 -80v-215h-158v700h158z" />
    <glyph glyph-name="L" unicode="L" horiz-adv-x="584" 
d="M80 0v700h156v-554h318v-146h-474z" />
    <glyph glyph-name="M" unicode="M" horiz-adv-x="881" 
d="M642 446l-198 -291h-8l-200 291h-2v-446h-154v700h161l199 -291l198 291h164v-700h-158v446h-2z" />
    <glyph glyph-name="N" unicode="N" horiz-adv-x="813" 
d="M577 276h3v424h154v-700h-136l-361 445h-2v-445h-155v700h155z" />
    <glyph glyph-name="O" unicode="O" horiz-adv-x="854" 
d="M426 -10c-215 0 -376 155 -376 360s153 360 378 360c215 0 377 -155 377 -360s-154 -360 -379 -360zM428 134c124 0 213 87 213 216s-91 216 -215 216s-212 -87 -212 -216s90 -216 214 -216z" />
    <glyph glyph-name="P" unicode="P" horiz-adv-x="637" 
d="M608 484c0 -152 -117 -217 -266 -217h-104v-267h-158v700h258c147 0 270 -65 270 -216zM444 484c0 69 -51 83 -110 83h-96v-168h97c54 0 109 18 109 85z" />
    <glyph glyph-name="Q" unicode="Q" horiz-adv-x="868" 
d="M805 355c0 -94 -48 -189 -145 -232v-2h179v-121h-413c-210 0 -376 150 -376 355s158 355 378 355c211 0 377 -150 377 -355zM428 144c121 0 213 82 213 211s-94 211 -215 211s-212 -82 -212 -211s93 -211 214 -211z" />
    <glyph glyph-name="R" unicode="R" horiz-adv-x="668" 
d="M474 0l-153 267h-83v-267h-158v700h258c147 0 270 -65 270 -216c0 -102 -54 -165 -133 -195l175 -289h-176zM444 484c0 69 -51 83 -110 83h-96v-168h97c54 0 109 18 109 85z" />
    <glyph glyph-name="S" unicode="S" horiz-adv-x="598" 
d="M558 212c0 -159 -131 -222 -258 -222c-92 0 -203 26 -271 89l109 119c33 -37 110 -62 161 -62c56 0 99 19 99 64c0 46 -43 66 -96 82c-88 28 -244 75 -244 218c0 154 115 210 255 210c90 0 174 -30 227 -78l-87 -114c-32 26 -89 52 -138 52c-42 0 -94 -11 -94 -63
c0 -47 67 -70 138 -92c81 -26 199 -75 199 -203z" />
    <glyph glyph-name="T" unicode="T" horiz-adv-x="610" 
d="M586 556h-202v-556h-158v556h-201v144h561v-144z" />
    <glyph glyph-name="U" unicode="U" horiz-adv-x="737" 
d="M668 700v-423c0 -167 -112 -287 -299 -287c-188 0 -299 120 -299 287v423h157v-421c0 -87 60 -145 143 -145c82 0 143 58 143 145v421h155z" />
    <glyph glyph-name="V" unicode="V" horiz-adv-x="737" 
d="M375 226l182 474h171l-292 -704h-137l-290 704h175l189 -474h2z" />
    <glyph glyph-name="W" unicode="W" horiz-adv-x="1030" 
d="M1006 700l-194 -704h-146l-150 489h-2l-151 -489h-148l-190 704h168l109 -459h2l142 461h147l143 -468h2l108 466h160z" />
    <glyph glyph-name="X" unicode="X" horiz-adv-x="711" 
d="M677 700l-232 -339l246 -361h-184l-154 239l-154 -239h-179l244 358l-231 342h184l139 -220l142 220h179z" />
    <glyph glyph-name="Y" unicode="Y" horiz-adv-x="697" 
d="M351 442l153 258h183l-260 -416v-284h-158v284l-259 416h189l150 -258h2z" />
    <glyph glyph-name="bracketleft" unicode="[" horiz-adv-x="405" 
d="M80 -160v890h275v-120h-128v-650h128v-120h-275z" />
    <glyph glyph-name="backslash" unicode="\" horiz-adv-x="514" 
d="M105 781l437 -941h-133l-437 941h133z" />
    <glyph glyph-name="bracketright" unicode="]" horiz-adv-x="405" 
d="M325 730v-890h-275v120h127v650h-127v120h275z" />
    <glyph glyph-name="asciicircum" unicode="^" horiz-adv-x="501" 
d="M50 441l148 259h105l148 -259h-116l-86 163l-85 -163h-114z" />
    <glyph glyph-name="underscore" unicode="_" horiz-adv-x="602" 
d="M-1 -152v97h604v-97h-604z" />
    <glyph glyph-name="grave" unicode="`" horiz-adv-x="503" 
d="M253 758l104 -178h-107l-129 120z" />
    <glyph glyph-name="a" unicode="a" horiz-adv-x="573" 
d="M260 316c34 0 73 -4 108 -12v20c0 54 -41 77 -97 77c-43 0 -94 -11 -150 -45l-54 102c53 36 133 62 209 62c129 0 237 -48 237 -198v-322h-145v60h-2c-29 -40 -86 -70 -146 -70c-95 0 -180 45 -180 160s111 166 220 166zM368 194v11c-26 9 -62 15 -95 15
c-41 0 -92 -17 -92 -67c0 -41 32 -62 77 -62c49 0 110 34 110 103z" />
    <glyph glyph-name="b" unicode="b" horiz-adv-x="634" 
d="M361 -10c-66 0 -111 25 -143 63h-2v-53h-151v750h151v-293h2c34 39 81 63 148 63c116 0 228 -84 228 -265c0 -180 -114 -265 -233 -265zM324 122c66 0 118 47 118 133c0 84 -57 134 -118 134s-117 -48 -117 -134c0 -83 56 -133 117 -133z" />
    <glyph glyph-name="c" unicode="c" horiz-adv-x="537" 
d="M415 173l97 -90c-49 -54 -109 -93 -210 -93c-151 0 -262 108 -262 265c0 155 110 265 264 265c95 0 156 -34 203 -87l-98 -93c-30 32 -61 49 -102 49c-68 0 -116 -52 -116 -134c0 -85 50 -133 119 -133c45 0 73 17 105 51z" />
    <glyph glyph-name="d" unicode="d" horiz-adv-x="634" 
d="M272 -10c-119 0 -232 85 -232 265c0 181 111 265 228 265c67 0 114 -22 147 -61h2v291h152v-750h-152v53h-2c-31 -38 -76 -63 -143 -63zM310 122c61 0 116 50 116 133c0 86 -55 134 -116 134s-119 -50 -119 -134c0 -86 53 -133 119 -133z" />
    <glyph glyph-name="e" unicode="e" horiz-adv-x="574" 
d="M299 -10c-151 0 -259 102 -259 265c0 150 102 265 249 265c168 0 245 -132 245 -276c0 -12 0 -23 -1 -40h-336c5 -63 42 -93 105 -93c47 0 86 17 118 55l89 -81c-47 -59 -119 -95 -210 -95zM195 299h185c-5 64 -34 105 -93 105c-58 0 -86 -40 -92 -105z" />
    <glyph glyph-name="f" unicode="f" horiz-adv-x="395" 
d="M93 0v383h-63v127h63v60c0 106 64 190 176 190c49 0 88 -8 116 -20l-15 -126c-19 8 -45 14 -64 14c-39 0 -62 -21 -62 -71v-47h115v-127h-115v-383h-151z" />
    <glyph glyph-name="g" unicode="g" horiz-adv-x="635" 
d="M288 -195c-82 0 -166 27 -229 61l66 115c52 -28 110 -41 158 -41c78 0 135 30 135 121v46h-2c-34 -51 -84 -72 -153 -72c-118 0 -223 88 -223 243c0 156 107 242 223 242c78 0 123 -24 153 -65h2v55h152v-444c0 -180 -104 -261 -282 -261zM304 166c65 0 117 45 117 112
c0 64 -52 111 -117 111c-64 0 -112 -47 -112 -113c0 -65 48 -110 112 -110z" />
    <glyph glyph-name="h" unicode="h" horiz-adv-x="589" 
d="M65 0v750h151v-292h2c34 40 81 62 140 62c96 0 177 -69 177 -196v-324h-151v288c0 67 -40 101 -84 101c-48 0 -84 -35 -84 -103v-286h-151z" />
    <glyph glyph-name="i" unicode="i" horiz-adv-x="295" 
d="M71 0v510h152v-510h-152zM235 663c0 -49 -39 -88 -88 -88c-48 0 -87 39 -87 88c0 48 39 88 87 88c49 0 88 -40 88 -88z" />
    <glyph glyph-name="j" unicode="j" horiz-adv-x="295" 
d="M51 -195c-28 0 -55 2 -76 6l11 130c12 -2 24 -3 35 -3c21 0 50 13 50 72v500h152v-512c0 -127 -59 -193 -172 -193zM235 663c0 -49 -39 -88 -88 -88c-48 0 -87 39 -87 88c0 48 39 88 87 88c49 0 88 -40 88 -88z" />
    <glyph glyph-name="k" unicode="k" horiz-adv-x="553" 
d="M216 750v-411l154 171h175l-190 -203l194 -307h-168l-125 201l-40 -43v-158h-151v750h151z" />
    <glyph glyph-name="l" unicode="l" horiz-adv-x="281" 
d="M65 0v750h151v-750h-151z" />
    <glyph glyph-name="m" unicode="m" horiz-adv-x="884" 
d="M65 0v510h151v-52h2c31 36 72 62 140 62c55 0 98 -23 126 -71h2c36 50 86 71 155 71c106 0 189 -75 189 -197v-323h-151v289c0 67 -25 100 -79 100c-47 0 -77 -38 -77 -105v-284h-150v284c0 67 -25 105 -78 105c-42 0 -79 -31 -79 -105v-284h-151z" />
    <glyph glyph-name="n" unicode="n" horiz-adv-x="589" 
d="M65 0v510h151v-52h2c34 40 81 62 140 62c96 0 177 -69 177 -196v-324h-151v288c0 67 -40 101 -84 101c-48 0 -84 -35 -84 -103v-286h-151z" />
    <glyph glyph-name="o" unicode="o" horiz-adv-x="624" 
d="M311 -10c-155 0 -271 111 -271 265s117 265 273 265c155 0 271 -111 271 -265s-117 -265 -273 -265zM313 122c74 0 119 60 119 133c0 71 -48 134 -121 134c-74 0 -120 -61 -120 -134c0 -71 49 -133 122 -133z" />
    <glyph glyph-name="p" unicode="p" horiz-adv-x="634" 
d="M361 -10c-66 0 -111 25 -143 63h-2v-243h-151v700h151v-53h2c34 39 81 63 148 63c116 0 228 -84 228 -265c0 -180 -114 -265 -233 -265zM324 122c66 0 118 47 118 133c0 84 -57 134 -118 134s-117 -48 -117 -134c0 -83 56 -133 117 -133z" />
    <glyph glyph-name="q" unicode="q" horiz-adv-x="634" 
d="M272 -10c-119 0 -232 85 -232 265c0 181 111 265 228 265c67 0 114 -24 147 -63h2v53h152v-700h-152v243h-2c-31 -38 -76 -63 -143 -63zM310 122c61 0 116 50 116 133c0 86 -55 134 -116 134s-119 -50 -119 -134c0 -86 53 -133 119 -133z" />
    <glyph glyph-name="r" unicode="r" horiz-adv-x="404" 
d="M218 458c25 33 72 62 152 62c5 0 13 -1 19 -1l-8 -136c-22 7 -49 9 -69 9c-60 0 -96 -31 -96 -119v-273h-151v510h151v-52h2z" />
    <glyph glyph-name="s" unicode="s" horiz-adv-x="469" 
d="M216 -10c-70 0 -132 16 -197 58l82 101c43 -32 79 -44 119 -44c33 0 57 9 57 33c0 31 -39 41 -92 61c-61 24 -145 57 -145 159c0 103 87 162 190 162c82 0 139 -19 187 -57l-77 -94c-31 23 -67 36 -102 36c-32 0 -46 -18 -46 -39c0 -42 71 -58 105 -70
c72 -25 132 -69 132 -145c0 -113 -104 -161 -213 -161z" />
    <glyph glyph-name="t" unicode="t" horiz-adv-x="444" 
d="M271 -10c-83 0 -157 36 -157 175v215h-94v130h94v127h152v-127h127v-130h-127v-195c0 -53 28 -63 51 -63c17 0 43 2 76 9v-124c-46 -16 -90 -17 -122 -17z" />
    <glyph glyph-name="u" unicode="u" horiz-adv-x="589" 
d="M525 510v-510h-152v52h-2c-34 -40 -81 -62 -140 -62c-96 0 -176 70 -176 196v324h150v-288c0 -67 40 -100 84 -100c48 0 84 35 84 102v286h152z" />
    <glyph glyph-name="v" unicode="v" horiz-adv-x="587" 
d="M219 -4l-204 514h161l117 -329h2l119 329h158l-205 -514h-148z" />
    <glyph glyph-name="w" unicode="w" horiz-adv-x="838" 
d="M174 -4l-156 514h156l78 -292h2l98 292h133l98 -293h3l81 293h153l-159 -514h-143l-100 310h-2l-100 -310h-142z" />
    <glyph glyph-name="x" unicode="x" horiz-adv-x="581" 
d="M389 0l-100 147h-2l-99 -147h-173l187 260l-180 250h177l91 -136h2l90 136h173l-179 -248l190 -262h-177z" />
    <glyph glyph-name="y" unicode="y" horiz-adv-x="580" 
d="M410 510h156l-220 -543c-38 -93 -88 -162 -207 -162c-32 0 -81 11 -120 26l41 123c21 -9 42 -14 61 -14c45 0 69 14 95 74l6 13l-207 483h164l115 -293h2z" />
    <glyph glyph-name="braceleft" unicode="{" horiz-adv-x="444" 
d="M394 -160h-106c-73 0 -130 42 -130 146v173c0 61 -85 67 -108 67v116c23 0 108 6 108 68v174c0 105 55 146 130 146h106v-115h-49c-62 0 -65 -36 -65 -64v-163c0 -94 -57 -98 -101 -103v-2c44 -3 101 -9 101 -102v-162c0 -28 3 -64 65 -64h49v-115z" />
    <glyph glyph-name="bar" unicode="|" horiz-adv-x="351" 
d="M100 -100v880h151v-880h-151z" />
    <glyph glyph-name="braceright" unicode="}" horiz-adv-x="444" 
d="M156 -160h-106v115h49c61 0 65 36 65 64v162c0 93 57 99 101 102v2c-44 5 -101 9 -101 103v163c0 28 -4 64 -65 64h-49v115h106c74 0 129 -41 129 -146v-174c0 -62 86 -68 109 -68v-116c-23 0 -109 -6 -109 -67v-173c0 -104 -57 -146 -129 -146z" />
    <glyph glyph-name="asciitilde" unicode="~" horiz-adv-x="502" 
d="M117 203l-76 78c22 61 64 107 129 107c62 0 114 -39 150 -39c31 0 53 17 67 49l74 -83c-22 -58 -64 -102 -127 -102c-62 0 -114 39 -150 39c-31 0 -54 -17 -67 -49z" />
    <glyph glyph-name="quotesinglbase" unicode="&#x201a;" horiz-adv-x="310" 
d="M50 -132l54 283h166l-91 -283h-129z" />
    <glyph glyph-name="florin" unicode="&#x192;" horiz-adv-x="482" 
d="M49 360h82l24 160c19 126 82 190 194 190c48 0 86 -8 113 -20l-24 -124c-18 8 -42 12 -61 12c-38 0 -63 -21 -71 -71l-23 -147h106v-121h-124l-64 -429h-151l63 429h-64v121z" />
    <glyph glyph-name="quotedblbase" unicode="&#x201e;" horiz-adv-x="545" 
d="M50 -132l54 283h166l-91 -283h-129zM285 -132l55 283h165l-90 -283h-130z" />
    <glyph glyph-name="ellipsis" unicode="&#x2026;" horiz-adv-x="872" 
d="M236 86c0 -52 -39 -91 -90 -91c-52 0 -91 39 -91 91c0 51 39 91 91 91c51 0 90 -40 90 -91zM527 86c0 -52 -40 -91 -91 -91c-52 0 -91 39 -91 91c0 51 39 91 91 91c51 0 91 -40 91 -91zM817 86c0 -52 -39 -91 -91 -91c-51 0 -91 39 -91 91c0 51 40 91 91 91
c52 0 91 -40 91 -91z" />
    <glyph glyph-name="dagger" unicode="&#x2020;" horiz-adv-x="415" 
d="M164 213v280h-114v77h114v130h87v-130h114v-77h-114v-280h-87z" />
    <glyph glyph-name="daggerdbl" unicode="&#x2021;" horiz-adv-x="415" 
d="M50 208h114v285h-114v77h114v130h87v-130h114v-77h-114v-285h114v-77h-114v-131h-87v131h-114v77z" />
    <glyph glyph-name="circumflex" unicode="&#x2c6;" horiz-adv-x="503" 
d="M55 573l120 157h152l121 -157h-129l-69 86l-69 -86h-126z" />
    <glyph glyph-name="perthousand" unicode="&#x2030;" horiz-adv-x="1155" 
d="M122 0l458 700h106l-458 -700h-106zM200 345c-89 0 -155 67 -155 180c0 111 67 180 155 180c87 0 155 -68 155 -180s-67 -180 -155 -180zM200 433c30 0 56 27 56 92c0 64 -26 92 -56 92c-31 0 -56 -27 -56 -92c0 -64 24 -92 56 -92zM605 -5c-89 0 -155 67 -155 180
c0 111 67 180 155 180c87 0 155 -68 155 -180s-67 -180 -155 -180zM605 83c31 0 56 27 56 92c0 64 -25 92 -56 92s-56 -27 -56 -92c0 -64 24 -92 56 -92zM955 -5c-89 0 -156 67 -156 180c0 111 68 180 156 180c87 0 155 -68 155 -180s-67 -180 -155 -180zM955 83
c30 0 56 27 56 92c0 64 -26 92 -56 92c-31 0 -57 -27 -57 -92c0 -64 25 -92 57 -92z" />
    <glyph glyph-name="Scaron" unicode="&#x160;" horiz-adv-x="598" 
d="M498 911l-121 -158h-152l-120 158h128l69 -86l69 86h127zM558 212c0 -159 -131 -222 -258 -222c-92 0 -203 26 -271 89l109 119c33 -37 110 -62 161 -62c56 0 99 19 99 64c0 46 -43 66 -96 82c-88 28 -244 75 -244 218c0 154 115 210 255 210c90 0 174 -30 227 -78
l-87 -114c-32 26 -89 52 -138 52c-42 0 -94 -11 -94 -63c0 -47 67 -70 138 -92c81 -26 199 -75 199 -203z" />
    <glyph glyph-name="guilsinglleft" unicode="&#x2039;" horiz-adv-x="349" 
d="M299 92l-92 -61l-167 234l167 235l92 -62l-124 -173z" />
    <glyph glyph-name="OE" unicode="&#x152;" horiz-adv-x="1047" 
d="M416 0c-215 0 -366 145 -366 350s143 350 368 350h571v-143h-331v-128h293v-139h-293v-146h340v-144h-582zM214 350c0 -129 80 -206 204 -206h82v413h-84c-124 0 -202 -78 -202 -207z" />
    <glyph glyph-name="quoteleft" unicode="&#x2018;" horiz-adv-x="299" 
d="M259 700l-54 -283h-165l90 283h129z" />
    <glyph glyph-name="quoteright" unicode="&#x2019;" horiz-adv-x="299" 
d="M40 417l54 283h165l-90 -283h-129z" />
    <glyph glyph-name="quotedblleft" unicode="&#x201c;" horiz-adv-x="534" 
d="M495 700l-54 -283h-166l90 283h130zM259 700l-54 -283h-165l90 283h129z" />
    <glyph glyph-name="quotedblright" unicode="&#x201d;" horiz-adv-x="534" 
d="M40 417l54 283h165l-90 -283h-129zM275 417l54 283h166l-91 -283h-129z" />
    <glyph glyph-name="bullet" unicode="&#x2022;" horiz-adv-x="504" 
d="M75 343c0 98 79 177 177 177s178 -79 178 -177s-80 -178 -178 -178s-177 80 -177 178z" />
    <glyph glyph-name="endash" unicode="&#x2013;" horiz-adv-x="601" 
d="M551 232h-501v142h501v-142z" />
    <glyph glyph-name="emdash" unicode="&#x2014;" horiz-adv-x="1000" 
d="M951 232h-901v142h901v-142z" />
    <glyph glyph-name="tilde" unicode="&#x2dc;" horiz-adv-x="503" 
d="M117 566l-76 78c22 62 64 107 129 107c62 0 114 -39 150 -39c31 0 54 17 68 49l74 -83c-22 -58 -65 -101 -127 -101c-63 0 -115 39 -151 39c-31 0 -53 -18 -67 -50z" />
    <glyph glyph-name="trademark" unicode="&#x2122;" horiz-adv-x="812" 
d="M338 611h-105v-261h-98v261h-105v89h308v-89zM672 700h90v-350h-98v194h-2l-81 -98h-4l-81 98h-2v-194h-97v350h89l93 -113z" />
    <glyph glyph-name="scaron" unicode="&#x161;" horiz-adv-x="469" 
d="M427 722l-121 -158h-152l-120 158h128l69 -86l69 86h127zM216 -10c-70 0 -132 16 -197 58l82 101c43 -32 79 -44 119 -44c33 0 57 9 57 33c0 31 -39 41 -92 61c-61 24 -145 57 -145 159c0 103 87 162 190 162c82 0 139 -19 187 -57l-77 -94c-31 23 -67 36 -102 36
c-32 0 -46 -18 -46 -39c0 -42 71 -58 105 -70c72 -25 132 -69 132 -145c0 -113 -104 -161 -213 -161z" />
    <glyph glyph-name="guilsinglright" unicode="&#x203a;" horiz-adv-x="349" 
d="M142 31l-92 61l124 173l-124 173l92 62l167 -235z" />
    <glyph glyph-name="oe" unicode="&#x153;" horiz-adv-x="967" 
d="M313 122c74 0 120 60 120 133c0 71 -49 134 -122 134c-74 0 -120 -61 -120 -134c0 -71 49 -133 122 -133zM587 299h186c-5 64 -34 105 -93 105s-86 -40 -93 -105zM813 166l89 -81c-47 -59 -119 -95 -210 -95c-82 0 -148 25 -192 88c-46 -63 -112 -88 -189 -88
c-155 0 -271 111 -271 265s117 265 273 265c76 0 142 -26 187 -89c42 62 105 89 182 89c168 0 245 -132 245 -276c0 -12 0 -23 -1 -40h-337c6 -63 43 -93 106 -93c47 0 86 17 118 55z" />
    <glyph glyph-name="Ydieresis" unicode="&#x178;" horiz-adv-x="697" 
d="M351 442l153 258h183l-260 -416v-284h-158v284l-259 416h189l150 -258h2zM522 828c0 -45 -33 -81 -80 -81c-45 0 -78 39 -78 81c0 41 34 78 76 78c45 0 82 -32 82 -78zM327 828c0 -45 -35 -81 -81 -81c-44 0 -78 39 -78 81c0 41 35 78 76 78c44 0 83 -32 83 -78z" />
    <glyph glyph-name="dieresis" unicode="&#xa8;" horiz-adv-x="503" 
d="M429 658c0 -45 -33 -81 -80 -81c-45 0 -78 39 -78 81c0 41 34 78 76 78c45 0 82 -32 82 -78zM234 658c0 -45 -35 -81 -81 -81c-44 0 -78 39 -78 81c0 41 35 78 76 78c44 0 83 -32 83 -78z" />
    <glyph glyph-name="exclamdown" unicode="&#xa1;" horiz-adv-x="331" 
d="M87 274h158v-459h-158v459zM75 430c0 51 39 90 91 90c51 0 90 -39 90 -90c0 -52 -39 -91 -90 -91c-52 0 -91 39 -91 91z" />
    <glyph glyph-name="cent" unicode="&#xa2;" horiz-adv-x="537" 
d="M283 -114v114c-136 8 -233 110 -233 255c0 142 96 246 233 254v99h53v-100c73 -7 122 -39 161 -82l-94 -90c-21 23 -42 37 -67 43v-249c27 6 50 21 73 47l93 -88c-41 -45 -90 -80 -166 -88v-115h-53zM196 255c0 -71 35 -115 87 -125v251c-52 -10 -87 -57 -87 -126z" />
    <glyph glyph-name="sterling" unicode="&#xa3;" horiz-adv-x="582" 
d="M552 629l-95 -102c-27 30 -46 49 -93 49c-38 0 -68 -33 -68 -93v-68h144v-103h-144v-197h216v-115h-462v115h94v197h-94v103h94v70c0 134 66 225 212 225c92 0 145 -31 196 -81z" />
    <glyph glyph-name="Euro" unicode="&#x20ac;" horiz-adv-x="705" 
d="M30 443h97c29 167 138 267 298 267c121 0 188 -51 241 -126l-118 -89c-38 52 -67 75 -125 75c-65 0 -112 -46 -131 -127h232v-59h-240v-34c0 -13 -1 -25 0 -36h240v-59h-231c20 -80 67 -126 132 -126c58 0 89 16 128 73l111 -82c-58 -89 -124 -130 -239 -130
c-160 0 -269 97 -298 265h-97v59h90c-1 12 -1 23 -1 36c0 11 0 23 1 34h-90v59z" />
    <glyph glyph-name="yen" unicode="&#xa5;" horiz-adv-x="717" 
d="M94 245h186v39l-32 49h-154v59h117l-191 308h196l145 -256h2l147 256h187l-192 -308h118v-59h-155l-30 -49v-39h185v-59h-185v-186h-158v186h-186v59z" />
    <glyph glyph-name="section" unicode="&#xa7;" horiz-adv-x="549" 
d="M261 -138c-74 0 -134 25 -202 73l75 91c45 -36 83 -50 125 -50c48 0 76 22 76 49c0 32 -51 57 -107 81c-63 27 -151 67 -151 171c0 56 30 100 85 132c-40 25 -80 71 -80 127c0 118 91 174 198 174c86 0 143 -24 194 -70l-78 -100c-32 35 -71 51 -107 51
c-33 0 -59 -21 -59 -56c0 -46 86 -72 121 -89c67 -32 138 -66 138 -153c0 -61 -45 -115 -93 -135c44 -16 88 -73 88 -124c0 -128 -110 -172 -223 -172zM200 290c0 -24 11 -42 28 -54c15 -8 39 -17 60 -17c41 0 78 25 78 63c0 24 -11 43 -28 54c-16 10 -39 16 -60 16
c-41 0 -78 -23 -78 -62z" />
    <glyph glyph-name="copyright" unicode="&#xa9;" horiz-adv-x="818" 
d="M408 -10c-201 0 -358 163 -358 360c0 194 158 360 360 360c201 0 358 -163 358 -360c0 -194 -158 -360 -360 -360zM408 52c168 0 296 136 296 298c0 161 -127 298 -294 298c-168 0 -297 -136 -297 -298c0 -161 128 -298 295 -298zM502 297l70 -60
c-39 -49 -103 -74 -154 -74c-120 0 -198 84 -198 194s76 194 196 194c56 0 114 -24 146 -66l-72 -61c-18 23 -47 35 -75 35c-49 0 -87 -41 -87 -102s38 -102 86 -102c25 0 59 9 88 42z" />
    <glyph glyph-name="ordfeminine" unicode="&#xaa;" horiz-adv-x="437" 
d="M185 568c22 0 49 -4 72 -9v5c0 35 -28 50 -65 50c-29 0 -63 -6 -100 -29l-38 77c36 24 101 43 152 43c85 0 160 -32 160 -133v-222h-109v40h-2c-20 -27 -65 -47 -105 -47c-65 0 -120 32 -120 109c0 80 82 116 155 116zM257 480v12c-19 4 -35 8 -64 8
c-28 0 -52 -19 -52 -44c0 -21 12 -35 42 -35c32 0 74 13 74 59z" />
    <glyph glyph-name="guillemotleft" unicode="&#xab;" horiz-adv-x="592" 
d="M542 92l-92 -61l-167 234l167 235l92 -62l-124 -173zM299 92l-92 -61l-167 234l167 235l92 -62l-124 -173z" />
    <glyph glyph-name="registered" unicode="&#xae;" horiz-adv-x="818" 
d="M408 -10c-201 0 -358 163 -358 360c0 194 158 360 360 360c201 0 358 -163 358 -360c0 -194 -158 -360 -360 -360zM408 52c168 0 296 136 296 298c0 161 -127 298 -294 298c-168 0 -297 -136 -297 -298c0 -161 128 -298 295 -298zM476 171l-83 134h-24v-134h-105v378h159
c79 0 145 -40 145 -122c0 -52 -32 -90 -71 -108l93 -148h-114zM460 428c0 24 -15 35 -42 35h-49v-69h49c25 0 42 8 42 34z" />
    <glyph glyph-name="macron" unicode="&#xaf;" horiz-adv-x="503" 
d="M101 592v108h301v-108h-301z" />
    <glyph glyph-name="degree" unicode="&#xb0;" horiz-adv-x="444" 
d="M395 537c0 -95 -78 -172 -173 -172s-172 77 -172 172c0 96 77 173 172 173s173 -77 173 -173zM307 537c0 48 -37 85 -85 85s-85 -37 -85 -85s37 -84 85 -84s85 36 85 84z" />
    <glyph glyph-name="acute" unicode="&#xb4;" horiz-adv-x="503" 
d="M142 580l103 178l132 -58l-128 -120h-107z" />
    <glyph glyph-name="paragraph" unicode="&#xb6;" horiz-adv-x="604" 
d="M325 0v267c-157 0 -275 74 -275 216c0 136 109 217 264 217h69v-700h-58zM447 700h58v-700h-58v700z" />
    <glyph glyph-name="periodcentered" unicode="&#xb7;" horiz-adv-x="291" 
d="M236 316c0 -51 -39 -90 -90 -90c-52 0 -91 39 -91 90c0 52 39 91 91 91c51 0 90 -39 90 -91z" />
    <glyph glyph-name="cedilla" unicode="&#xb8;" horiz-adv-x="503" 
d="M384 -130c0 -73 -89 -97 -140 -97c-40 0 -90 13 -125 30l25 47c16 -7 42 -17 77 -17c31 0 66 6 66 32c0 24 -30 30 -50 30c-11 0 -23 -3 -36 -8l-32 30l62 93h67l-41 -60c8 0 14 0 21 -1c53 -3 106 -22 106 -79z" />
    <glyph glyph-name="ordmasculine" unicode="&#xba;" horiz-adv-x="471" 
d="M214 344c-103 0 -195 66 -195 182c0 117 92 180 197 180c104 0 195 -63 195 -180c0 -116 -92 -182 -197 -182zM216 445c50 0 74 41 74 81c0 37 -27 78 -76 78s-74 -43 -74 -78c0 -40 26 -81 76 -81z" />
    <glyph glyph-name="guillemotright" unicode="&#xbb;" horiz-adv-x="592" 
d="M142 31l-92 61l124 173l-124 173l92 62l167 -235zM384 31l-91 61l124 173l-124 173l91 62l168 -235z" />
    <glyph glyph-name="questiondown" unicode="&#xbf;" horiz-adv-x="548" 
d="M369 29l149 -29c-21 -127 -109 -195 -241 -195c-117 0 -237 72 -237 203c0 44 21 93 52 123l73 69c28 26 37 45 37 67v26h152v-34c0 -39 -8 -73 -32 -95l-98 -92c-19 -18 -28 -37 -28 -58c1 -43 43 -71 83 -71c61 0 84 39 90 86zM183 429c0 52 40 91 91 91
c52 0 91 -39 91 -91c0 -51 -39 -90 -91 -90c-51 0 -91 39 -91 90z" />
    <glyph glyph-name="Agrave" unicode="&#xc0;" horiz-adv-x="763" 
d="M176 0h-167l304 703h138l303 -703h-171l-59 144h-289zM379 499l-91 -225h183l-90 225h-2zM329 928l104 -178h-107l-129 120z" />
    <glyph glyph-name="Aacute" unicode="&#xc1;" horiz-adv-x="763" 
d="M176 0h-167l304 703h138l303 -703h-171l-59 144h-289zM379 499l-91 -225h183l-90 225h-2zM331 750l103 178l132 -58l-128 -120h-107z" />
    <glyph glyph-name="Acircumflex" unicode="&#xc2;" horiz-adv-x="763" 
d="M176 0h-167l304 703h138l303 -703h-171l-59 144h-289zM379 499l-91 -225h183l-90 225h-2zM181 753l120 157h152l121 -157h-129l-69 86l-69 -86h-126z" />
    <glyph glyph-name="Atilde" unicode="&#xc3;" horiz-adv-x="763" 
d="M176 0h-167l304 703h138l303 -703h-171l-59 144h-289zM379 499l-91 -225h183l-90 225h-2zM235 736l-76 78c22 62 64 107 129 107c62 0 114 -39 150 -39c31 0 54 17 68 49l74 -83c-22 -58 -65 -101 -127 -101c-63 0 -115 39 -151 39c-31 0 -53 -18 -67 -50z" />
    <glyph glyph-name="Adieresis" unicode="&#xc4;" horiz-adv-x="763" 
d="M176 0h-167l304 703h138l303 -703h-171l-59 144h-289zM379 499l-91 -225h183l-90 225h-2zM557 828c0 -45 -33 -81 -80 -81c-45 0 -78 39 -78 81c0 41 34 78 76 78c45 0 82 -32 82 -78zM362 828c0 -45 -35 -81 -81 -81c-44 0 -78 39 -78 81c0 41 35 78 76 78
c44 0 83 -32 83 -78z" />
    <glyph glyph-name="Aring" unicode="&#xc5;" horiz-adv-x="763" 
d="M176 0h-167l304 703h138l303 -703h-171l-59 144h-289zM379 499l-91 -225h183l-90 225h-2zM379 646c-65 0 -123 52 -123 118c0 65 58 121 123 121s124 -54 124 -120c0 -65 -59 -119 -124 -119zM379 705c34 0 61 25 61 59c0 33 -27 63 -61 63s-61 -28 -61 -62
c0 -33 27 -60 61 -60z" />
    <glyph glyph-name="AE" unicode="&#xc6;" horiz-adv-x="1053" 
d="M504 0v141h-255l-78 -141h-166l401 700h588v-143h-332v-128h294v-139h-294v-146h341v-144h-499zM476 557l-156 -286h184v286h-28z" />
    <glyph glyph-name="Ccedilla" unicode="&#xc7;" horiz-adv-x="718" 
d="M568 206l120 -91c-63 -84 -166 -125 -265 -125c-222 0 -373 156 -373 360s149 360 370 360c97 0 194 -30 252 -108l-117 -95c-30 34 -74 59 -130 59c-116 0 -211 -85 -211 -216s96 -216 206 -216c62 0 116 30 148 72zM542 -130c0 -73 -89 -97 -140 -97
c-40 0 -90 13 -125 30l25 47c16 -7 42 -17 77 -17c31 0 66 6 66 32c0 24 -30 30 -50 30c-11 0 -23 -3 -36 -8l-32 30l62 93h67l-41 -60c8 0 14 0 21 -1c53 -3 106 -22 106 -79z" />
    <glyph glyph-name="Egrave" unicode="&#xc8;" horiz-adv-x="642" 
d="M80 0v700h503v-143h-345v-128h307v-139h-307v-146h354v-144h-512zM322 928l104 -178h-107l-129 120z" />
    <glyph glyph-name="Eacute" unicode="&#xc9;" horiz-adv-x="642" 
d="M291 750l103 178l132 -58l-128 -120h-107zM80 0v700h503v-143h-345v-128h307v-139h-307v-146h354v-144h-512z" />
    <glyph glyph-name="Ecircumflex" unicode="&#xca;" horiz-adv-x="642" 
d="M141 753l120 157h152l121 -157h-129l-69 86l-69 -86h-126zM80 0v700h503v-143h-345v-128h307v-139h-307v-146h354v-144h-512z" />
    <glyph glyph-name="Edieresis" unicode="&#xcb;" horiz-adv-x="642" 
d="M513 827c0 -45 -33 -81 -80 -81c-45 0 -78 39 -78 81c0 41 34 78 76 78c45 0 82 -32 82 -78zM318 827c0 -45 -35 -81 -81 -81c-44 0 -78 39 -78 81c0 41 35 78 76 78c44 0 83 -32 83 -78zM80 0v700h503v-143h-345v-128h307v-139h-307v-146h354v-144h-512z" />
    <glyph glyph-name="Igrave" unicode="&#xcc;" horiz-adv-x="317" 
d="M80 0v700h158v-700h-158zM113 928l104 -178h-107l-129 120z" />
    <glyph glyph-name="Iacute" unicode="&#xcd;" horiz-adv-x="317" 
d="M80 0v700h158v-700h-158zM102 750l103 178l132 -58l-128 -120h-107z" />
    <glyph glyph-name="Icircumflex" unicode="&#xce;" horiz-adv-x="317" 
d="M80 0v700h158v-700h-158zM-35 753l120 157h152l121 -157h-129l-69 86l-69 -86h-126z" />
    <glyph glyph-name="Idieresis" unicode="&#xcf;" horiz-adv-x="317" 
d="M80 0v700h158v-700h-158zM340 828c0 -45 -33 -81 -80 -81c-45 0 -78 39 -78 81c0 41 34 78 76 78c45 0 82 -32 82 -78zM145 828c0 -45 -35 -81 -81 -81c-44 0 -78 39 -78 81c0 41 35 78 76 78c44 0 83 -32 83 -78z" />
    <glyph glyph-name="Eth" unicode="&#xd0;" horiz-adv-x="818" 
d="M50 427h69v273h241c228 0 408 -119 408 -350s-180 -350 -408 -350h-241v287h-69v140zM604 350c0 145 -108 206 -246 206h-81v-129h142v-140h-142v-143h85c138 0 242 61 242 206z" />
    <glyph glyph-name="Ntilde" unicode="&#xd1;" horiz-adv-x="813" 
d="M577 276h3v424h154v-700h-136l-361 445h-2v-445h-155v700h155zM273 740l-76 78c22 62 64 107 129 107c62 0 114 -39 150 -39c31 0 54 17 68 49l74 -83c-22 -58 -65 -101 -127 -101c-63 0 -115 39 -151 39c-31 0 -53 -18 -67 -50z" />
    <glyph glyph-name="Ograve" unicode="&#xd2;" horiz-adv-x="854" 
d="M426 -10c-215 0 -376 155 -376 360s153 360 378 360c215 0 377 -155 377 -360s-154 -360 -379 -360zM428 134c124 0 213 87 213 216s-91 216 -215 216s-212 -87 -212 -216s90 -216 214 -216zM371 928l104 -178h-107l-129 120z" />
    <glyph glyph-name="Oacute" unicode="&#xd3;" horiz-adv-x="854" 
d="M371 750l103 178l132 -58l-128 -120h-107zM426 -10c-215 0 -376 155 -376 360s153 360 378 360c215 0 377 -155 377 -360s-154 -360 -379 -360zM428 134c124 0 213 87 213 216s-91 216 -215 216s-212 -87 -212 -216s90 -216 214 -216z" />
    <glyph glyph-name="Ocircumflex" unicode="&#xd4;" horiz-adv-x="854" 
d="M227 753l120 157h152l121 -157h-129l-69 86l-69 -86h-126zM426 -10c-215 0 -376 155 -376 360s153 360 378 360c215 0 377 -155 377 -360s-154 -360 -379 -360zM428 134c124 0 213 87 213 216s-91 216 -215 216s-212 -87 -212 -216s90 -216 214 -216z" />
    <glyph glyph-name="Otilde" unicode="&#xd5;" horiz-adv-x="854" 
d="M426 -10c-215 0 -376 155 -376 360s153 360 378 360c215 0 377 -155 377 -360s-154 -360 -379 -360zM428 134c124 0 213 87 213 216s-91 216 -215 216s-212 -87 -212 -216s90 -216 214 -216zM280 736l-76 78c22 62 64 107 129 107c62 0 114 -39 150 -39c31 0 54 17 68 49
l74 -83c-22 -58 -65 -101 -127 -101c-63 0 -115 39 -151 39c-31 0 -53 -18 -67 -50z" />
    <glyph glyph-name="Odieresis" unicode="&#xd6;" horiz-adv-x="854" 
d="M605 828c0 -45 -33 -81 -80 -81c-45 0 -78 39 -78 81c0 41 34 78 76 78c45 0 82 -32 82 -78zM410 828c0 -45 -35 -81 -81 -81c-44 0 -78 39 -78 81c0 41 35 78 76 78c44 0 83 -32 83 -78zM426 -10c-215 0 -376 155 -376 360s153 360 378 360c215 0 377 -155 377 -360
s-154 -360 -379 -360zM428 134c124 0 213 87 213 216s-91 216 -215 216s-212 -87 -212 -216s90 -216 214 -216z" />
    <glyph glyph-name="Oslash" unicode="&#xd8;" horiz-adv-x="854" 
d="M815 700l-101 -110c57 -63 91 -147 91 -240c0 -205 -154 -360 -379 -360c-79 0 -149 20 -208 56l-43 -46h-138l102 112c-56 62 -89 145 -89 238c0 205 153 360 378 360c77 0 148 -21 207 -55l41 45h139zM428 134c124 0 213 87 213 216c0 47 -13 89 -35 122l-285 -313
c31 -17 67 -25 107 -25zM214 350c0 -46 12 -87 32 -120l286 311c-31 17 -67 25 -106 25c-124 0 -212 -87 -212 -216z" />
    <glyph glyph-name="Ugrave" unicode="&#xd9;" horiz-adv-x="737" 
d="M668 700v-423c0 -167 -112 -287 -299 -287c-188 0 -299 120 -299 287v423h157v-421c0 -87 60 -145 143 -145c82 0 143 58 143 145v421h155zM321 928l104 -178h-107l-129 120z" />
    <glyph glyph-name="Uacute" unicode="&#xda;" horiz-adv-x="737" 
d="M311 750l103 178l132 -58l-128 -120h-107zM668 700v-423c0 -167 -112 -287 -299 -287c-188 0 -299 120 -299 287v423h157v-421c0 -87 60 -145 143 -145c82 0 143 58 143 145v421h155z" />
    <glyph glyph-name="Ucircumflex" unicode="&#xdb;" horiz-adv-x="737" 
d="M173 753l120 157h152l121 -157h-129l-69 86l-69 -86h-126zM668 700v-423c0 -167 -112 -287 -299 -287c-188 0 -299 120 -299 287v423h157v-421c0 -87 60 -145 143 -145c82 0 143 58 143 145v421h155z" />
    <glyph glyph-name="Udieresis" unicode="&#xdc;" horiz-adv-x="737" 
d="M547 828c0 -45 -33 -81 -80 -81c-45 0 -78 39 -78 81c0 41 34 78 76 78c45 0 82 -32 82 -78zM352 828c0 -45 -35 -81 -81 -81c-44 0 -78 39 -78 81c0 41 35 78 76 78c44 0 83 -32 83 -78zM668 700v-423c0 -167 -112 -287 -299 -287c-188 0 -299 120 -299 287v423h157
v-421c0 -87 60 -145 143 -145c82 0 143 58 143 145v421h155z" />
    <glyph glyph-name="Yacute" unicode="&#xdd;" horiz-adv-x="697" 
d="M351 442l153 258h183l-260 -416v-284h-158v284l-259 416h189l150 -258h2zM291 750l103 178l132 -58l-128 -120h-107z" />
    <glyph glyph-name="Thorn" unicode="&#xde;" horiz-adv-x="637" 
d="M608 359c0 -151 -117 -216 -266 -216h-104v-143h-158v700h158v-124h100c147 0 270 -65 270 -217zM444 359c0 69 -51 84 -110 84h-96v-169h97c54 0 109 19 109 85z" />
    <glyph glyph-name="germandbls" unicode="&#xdf;" horiz-adv-x="616" 
d="M266 0v125c8 -1 33 -3 49 -3c63 1 120 42 120 111c0 80 -54 112 -116 112h-21v122h11c40 0 74 30 74 87c0 49 -31 76 -79 76c-51 0 -88 -39 -88 -104v-526h-151v522c0 148 96 238 246 238c144 0 224 -83 224 -194c0 -67 -43 -121 -102 -145c107 -32 154 -106 154 -200
c0 -138 -113 -231 -256 -231c-18 0 -49 4 -65 10z" />
    <glyph glyph-name="agrave" unicode="&#xe0;" horiz-adv-x="573" 
d="M260 316c34 0 73 -4 108 -12v20c0 54 -41 77 -97 77c-43 0 -94 -11 -150 -45l-54 102c53 36 133 62 209 62c129 0 237 -48 237 -198v-322h-145v60h-2c-29 -40 -86 -70 -146 -70c-95 0 -180 45 -180 160s111 166 220 166zM368 194v11c-26 9 -62 15 -95 15
c-41 0 -92 -17 -92 -67c0 -41 32 -62 77 -62c49 0 110 34 110 103zM252 758l104 -178h-107l-129 120z" />
    <glyph glyph-name="aacute" unicode="&#xe1;" horiz-adv-x="573" 
d="M260 316c34 0 73 -4 108 -12v20c0 54 -41 77 -97 77c-43 0 -94 -11 -150 -45l-54 102c53 36 133 62 209 62c129 0 237 -48 237 -198v-322h-145v60h-2c-29 -40 -86 -70 -146 -70c-95 0 -180 45 -180 160s111 166 220 166zM368 194v11c-26 9 -62 15 -95 15
c-41 0 -92 -17 -92 -67c0 -41 32 -62 77 -62c49 0 110 34 110 103zM221 580l103 178l132 -58l-128 -120h-107z" />
    <glyph glyph-name="acircumflex" unicode="&#xe2;" horiz-adv-x="573" 
d="M260 316c34 0 73 -4 108 -12v20c0 54 -41 77 -97 77c-43 0 -94 -11 -150 -45l-54 102c53 36 133 62 209 62c129 0 237 -48 237 -198v-322h-145v60h-2c-29 -40 -86 -70 -146 -70c-95 0 -180 45 -180 160s111 166 220 166zM368 194v11c-26 9 -62 15 -95 15
c-41 0 -92 -17 -92 -67c0 -41 32 -62 77 -62c49 0 110 34 110 103zM95 573l120 157h152l121 -157h-129l-69 86l-69 -86h-126z" />
    <glyph glyph-name="atilde" unicode="&#xe3;" horiz-adv-x="573" 
d="M260 316c34 0 73 -4 108 -12v20c0 54 -41 77 -97 77c-43 0 -94 -11 -150 -45l-54 102c53 36 133 62 209 62c129 0 237 -48 237 -198v-322h-145v60h-2c-29 -40 -86 -70 -146 -70c-95 0 -180 45 -180 160s111 166 220 166zM368 194v11c-26 9 -62 15 -95 15
c-41 0 -92 -17 -92 -67c0 -41 32 -62 77 -62c49 0 110 34 110 103zM156 566l-76 78c22 62 64 107 129 107c62 0 114 -39 150 -39c31 0 54 17 68 49l74 -83c-22 -58 -65 -101 -127 -101c-63 0 -115 39 -151 39c-31 0 -53 -18 -67 -50z" />
    <glyph glyph-name="adieresis" unicode="&#xe4;" horiz-adv-x="573" 
d="M260 316c34 0 73 -4 108 -12v20c0 54 -41 77 -97 77c-43 0 -94 -11 -150 -45l-54 102c53 36 133 62 209 62c129 0 237 -48 237 -198v-322h-145v60h-2c-29 -40 -86 -70 -146 -70c-95 0 -180 45 -180 160s111 166 220 166zM368 194v11c-26 9 -62 15 -95 15
c-41 0 -92 -17 -92 -67c0 -41 32 -62 77 -62c49 0 110 34 110 103zM468 658c0 -45 -33 -81 -80 -81c-45 0 -78 39 -78 81c0 41 34 78 76 78c45 0 82 -32 82 -78zM273 658c0 -45 -35 -81 -81 -81c-44 0 -78 39 -78 81c0 41 35 78 76 78c44 0 83 -32 83 -78z" />
    <glyph glyph-name="aring" unicode="&#xe5;" horiz-adv-x="573" 
d="M260 316c34 0 73 -4 108 -12v20c0 54 -41 77 -97 77c-43 0 -94 -11 -150 -45l-54 102c53 36 133 62 209 62c129 0 237 -48 237 -198v-322h-145v60h-2c-29 -40 -86 -70 -146 -70c-95 0 -180 45 -180 160s111 166 220 166zM368 194v11c-26 9 -62 15 -95 15
c-41 0 -92 -17 -92 -67c0 -41 32 -62 77 -62c49 0 110 34 110 103zM290 574c-65 0 -123 52 -123 118c0 65 58 121 123 121s124 -54 124 -120c0 -65 -59 -119 -124 -119zM290 633c34 0 61 25 61 59c0 33 -27 63 -61 63s-61 -28 -61 -62c0 -33 27 -60 61 -60z" />
    <glyph glyph-name="ae" unicode="&#xe6;" horiz-adv-x="885" 
d="M610 -10c-84 0 -152 31 -197 85c-42 -59 -128 -85 -193 -85c-95 0 -180 47 -180 162c0 120 111 175 220 175c34 0 73 -3 108 -11v8c0 54 -41 77 -97 77c-43 0 -94 -11 -150 -45l-54 102c53 36 127 62 203 62s144 -16 188 -61c36 39 87 61 146 61c169 0 241 -132 241 -276
c0 -12 0 -23 -1 -40h-332c6 -63 38 -93 101 -93c48 0 86 17 118 55l89 -81c-47 -59 -119 -95 -210 -95zM365 170c-4 16 -7 32 -9 49c-23 6 -46 10 -83 10c-41 0 -92 -19 -92 -74c0 -41 32 -64 77 -64c43 0 95 26 107 79zM510 299h181c-5 64 -30 105 -89 105
c-58 0 -85 -40 -92 -105z" />
    <glyph glyph-name="ccedilla" unicode="&#xe7;" horiz-adv-x="537" 
d="M415 173l97 -90c-49 -54 -109 -93 -210 -93c-151 0 -262 108 -262 265c0 155 110 265 264 265c95 0 156 -34 203 -87l-98 -93c-30 32 -61 49 -102 49c-68 0 -116 -52 -116 -134c0 -85 50 -133 119 -133c45 0 73 17 105 51zM442 -130c0 -73 -89 -97 -140 -97
c-40 0 -90 13 -125 30l25 47c16 -7 42 -17 77 -17c31 0 66 6 66 32c0 24 -30 30 -50 30c-11 0 -23 -3 -36 -8l-32 30l62 93h67l-41 -60c8 0 14 0 21 -1c53 -3 106 -22 106 -79z" />
    <glyph glyph-name="egrave" unicode="&#xe8;" horiz-adv-x="574" 
d="M299 -10c-151 0 -259 102 -259 265c0 150 102 265 249 265c168 0 245 -132 245 -276c0 -12 0 -23 -1 -40h-336c5 -63 42 -93 105 -93c47 0 86 17 118 55l89 -81c-47 -59 -119 -95 -210 -95zM195 299h185c-5 64 -34 105 -93 105c-58 0 -86 -40 -92 -105zM246 758l104 -178
h-107l-129 120z" />
    <glyph glyph-name="eacute" unicode="&#xe9;" horiz-adv-x="574" 
d="M230 580l103 178l132 -58l-128 -120h-107zM299 -10c-151 0 -259 102 -259 265c0 150 102 265 249 265c168 0 245 -132 245 -276c0 -12 0 -23 -1 -40h-336c5 -63 42 -93 105 -93c47 0 86 17 118 55l89 -81c-47 -59 -119 -95 -210 -95zM195 299h185c-5 64 -34 105 -93 105
c-58 0 -86 -40 -92 -105z" />
    <glyph glyph-name="ecircumflex" unicode="&#xea;" horiz-adv-x="574" 
d="M93 573l120 157h152l121 -157h-129l-69 86l-69 -86h-126zM299 -10c-151 0 -259 102 -259 265c0 150 102 265 249 265c168 0 245 -132 245 -276c0 -12 0 -23 -1 -40h-336c5 -63 42 -93 105 -93c47 0 86 17 118 55l89 -81c-47 -59 -119 -95 -210 -95zM195 299h185
c-5 64 -34 105 -93 105c-58 0 -86 -40 -92 -105z" />
    <glyph glyph-name="edieresis" unicode="&#xeb;" horiz-adv-x="574" 
d="M465 658c0 -45 -33 -81 -80 -81c-45 0 -78 39 -78 81c0 41 34 78 76 78c45 0 82 -32 82 -78zM270 658c0 -45 -35 -81 -81 -81c-44 0 -78 39 -78 81c0 41 35 78 76 78c44 0 83 -32 83 -78zM299 -10c-151 0 -259 102 -259 265c0 150 102 265 249 265
c168 0 245 -132 245 -276c0 -12 0 -23 -1 -40h-336c5 -63 42 -93 105 -93c47 0 86 17 118 55l89 -81c-47 -59 -119 -95 -210 -95zM195 299h185c-5 64 -34 105 -93 105c-58 0 -86 -40 -92 -105z" />
    <glyph glyph-name="igrave" unicode="&#xec;" horiz-adv-x="295" 
d="M71 0v510h152v-510h-152zM113 758l104 -178h-107l-129 120z" />
    <glyph glyph-name="iacute" unicode="&#xed;" horiz-adv-x="295" 
d="M92 580l103 178l132 -58l-128 -120h-107zM71 0v510h152v-510h-152z" />
    <glyph glyph-name="icircumflex" unicode="&#xee;" horiz-adv-x="295" 
d="M-45 573l120 157h152l121 -157h-129l-69 86l-69 -86h-126zM71 0v510h152v-510h-152z" />
    <glyph glyph-name="idieresis" unicode="&#xef;" horiz-adv-x="295" 
d="M329 658c0 -45 -33 -81 -80 -81c-45 0 -78 39 -78 81c0 41 34 78 76 78c45 0 82 -32 82 -78zM134 658c0 -45 -35 -81 -81 -81c-44 0 -78 39 -78 81c0 41 35 78 76 78c44 0 83 -32 83 -78zM71 0v510h152v-510h-152z" />
    <glyph glyph-name="eth" unicode="&#xf0;" horiz-adv-x="624" 
d="M513 674l-113 -52l75 -107c58 -85 109 -167 109 -265c0 -138 -103 -260 -273 -260c-171 0 -271 121 -271 260c0 146 109 237 229 237c48 0 70 -8 83 -12l-67 95l-77 -35l-52 75l77 36l-73 104h152l36 -52l112 52zM313 122c81 0 119 65 119 128c0 52 -32 126 -113 126
c-95 0 -128 -65 -128 -126c0 -64 43 -128 122 -128z" />
    <glyph glyph-name="ntilde" unicode="&#xf1;" horiz-adv-x="589" 
d="M65 0v510h151v-52h2c34 40 81 62 140 62c96 0 177 -69 177 -196v-324h-151v288c0 67 -40 101 -84 101c-48 0 -84 -35 -84 -103v-286h-151zM162 566l-76 78c22 62 64 107 129 107c62 0 114 -39 150 -39c31 0 54 17 68 49l74 -83c-22 -58 -65 -101 -127 -101
c-63 0 -115 39 -151 39c-31 0 -53 -18 -67 -50z" />
    <glyph glyph-name="ograve" unicode="&#xf2;" horiz-adv-x="624" 
d="M311 -10c-155 0 -271 111 -271 265s117 265 273 265c155 0 271 -111 271 -265s-117 -265 -273 -265zM313 122c74 0 119 60 119 133c0 71 -48 134 -121 134c-74 0 -120 -61 -120 -134c0 -71 49 -133 122 -133zM271 758l104 -178h-107l-129 120z" />
    <glyph glyph-name="oacute" unicode="&#xf3;" horiz-adv-x="624" 
d="M250 580l103 178l132 -58l-128 -120h-107zM311 -10c-155 0 -271 111 -271 265s117 265 273 265c155 0 271 -111 271 -265s-117 -265 -273 -265zM313 122c74 0 119 60 119 133c0 71 -48 134 -121 134c-74 0 -120 -61 -120 -134c0 -71 49 -133 122 -133z" />
    <glyph glyph-name="ocircumflex" unicode="&#xf4;" horiz-adv-x="624" 
d="M113 573l120 157h152l121 -157h-129l-69 86l-69 -86h-126zM311 -10c-155 0 -271 111 -271 265s117 265 273 265c155 0 271 -111 271 -265s-117 -265 -273 -265zM313 122c74 0 119 60 119 133c0 71 -48 134 -121 134c-74 0 -120 -61 -120 -134c0 -71 49 -133 122 -133z
" />
    <glyph glyph-name="otilde" unicode="&#xf5;" horiz-adv-x="624" 
d="M311 -10c-155 0 -271 111 -271 265s117 265 273 265c155 0 271 -111 271 -265s-117 -265 -273 -265zM313 122c74 0 119 60 119 133c0 71 -48 134 -121 134c-74 0 -120 -61 -120 -134c0 -71 49 -133 122 -133zM179 566l-76 78c22 62 64 107 129 107c62 0 114 -39 150 -39
c31 0 54 17 68 49l74 -83c-22 -58 -65 -101 -127 -101c-63 0 -115 39 -151 39c-31 0 -53 -18 -67 -50z" />
    <glyph glyph-name="odieresis" unicode="&#xf6;" horiz-adv-x="624" 
d="M484 658c0 -45 -33 -81 -80 -81c-45 0 -78 39 -78 81c0 41 34 78 76 78c45 0 82 -32 82 -78zM289 658c0 -45 -35 -81 -81 -81c-44 0 -78 39 -78 81c0 41 35 78 76 78c44 0 83 -32 83 -78zM311 -10c-155 0 -271 111 -271 265s117 265 273 265c155 0 271 -111 271 -265
s-117 -265 -273 -265zM313 122c74 0 119 60 119 133c0 71 -48 134 -121 134c-74 0 -120 -61 -120 -134c0 -71 49 -133 122 -133z" />
    <glyph glyph-name="oslash" unicode="&#xf8;" horiz-adv-x="624" 
d="M30 -5l74 84c-40 45 -64 106 -64 176c0 154 117 265 273 265c55 0 105 -14 146 -38l31 35h104l-75 -85c41 -46 65 -107 65 -177c0 -154 -117 -265 -273 -265c-56 0 -106 14 -148 39l-30 -34h-103zM313 122c74 0 119 60 119 133c0 23 -4 44 -13 63l-162 -183
c16 -9 35 -13 56 -13zM191 255c0 -22 4 -44 13 -62l161 182c-16 9 -34 14 -54 14c-74 0 -120 -61 -120 -134z" />
    <glyph glyph-name="ugrave" unicode="&#xf9;" horiz-adv-x="589" 
d="M525 510v-510h-152v52h-2c-34 -40 -81 -62 -140 -62c-96 0 -176 70 -176 196v324h150v-288c0 -67 40 -100 84 -100c48 0 84 35 84 102v286h152zM252 758l104 -178h-107l-129 120z" />
    <glyph glyph-name="uacute" unicode="&#xfa;" horiz-adv-x="589" 
d="M230 580l103 178l132 -58l-128 -120h-107zM525 510v-510h-152v52h-2c-34 -40 -81 -62 -140 -62c-96 0 -176 70 -176 196v324h150v-288c0 -67 40 -100 84 -100c48 0 84 35 84 102v286h152z" />
    <glyph glyph-name="ucircumflex" unicode="&#xfb;" horiz-adv-x="589" 
d="M95 573l120 157h152l121 -157h-129l-69 86l-69 -86h-126zM525 510v-510h-152v52h-2c-34 -40 -81 -62 -140 -62c-96 0 -176 70 -176 196v324h150v-288c0 -67 40 -100 84 -100c48 0 84 35 84 102v286h152z" />
    <glyph glyph-name="udieresis" unicode="&#xfc;" horiz-adv-x="589" 
d="M467 658c0 -45 -33 -81 -80 -81c-45 0 -78 39 -78 81c0 41 34 78 76 78c45 0 82 -32 82 -78zM272 658c0 -45 -35 -81 -81 -81c-44 0 -78 39 -78 81c0 41 35 78 76 78c44 0 83 -32 83 -78zM525 510v-510h-152v52h-2c-34 -40 -81 -62 -140 -62c-96 0 -176 70 -176 196v324
h150v-288c0 -67 40 -100 84 -100c48 0 84 35 84 102v286h152z" />
    <glyph glyph-name="yacute" unicode="&#xfd;" horiz-adv-x="580" 
d="M410 510h156l-220 -543c-38 -93 -88 -162 -207 -162c-32 0 -81 11 -120 26l41 123c21 -9 42 -14 61 -14c45 0 69 14 95 74l6 13l-207 483h164l115 -293h2zM230 580l103 178l132 -58l-128 -120h-107z" />
    <glyph glyph-name="thorn" unicode="&#xfe;" horiz-adv-x="634" 
d="M361 -10c-66 0 -111 25 -143 63h-2v-243h-151v940h151v-293h2c34 39 81 63 148 63c116 0 228 -84 228 -265c0 -180 -114 -265 -233 -265zM324 122c66 0 118 47 118 133c0 84 -57 134 -118 134s-117 -48 -117 -134c0 -83 56 -133 117 -133z" />
    <glyph glyph-name="ydieresis" unicode="&#xff;" horiz-adv-x="580" 
d="M410 510h156l-220 -543c-38 -93 -88 -162 -207 -162c-32 0 -81 11 -120 26l41 123c21 -9 42 -14 61 -14c45 0 69 14 95 74l6 13l-207 483h164l115 -293h2zM463 658c0 -45 -33 -81 -80 -81c-45 0 -78 39 -78 81c0 41 34 78 76 78c45 0 82 -32 82 -78zM268 658
c0 -45 -35 -81 -81 -81c-44 0 -78 39 -78 81c0 41 35 78 76 78c44 0 83 -32 83 -78z" />
    <glyph glyph-name="onesuperior" unicode="&#xb9;" horiz-adv-x="285" 
d="M117 611l-56 -33l-36 69l100 53h91v-350h-99v261z" />
    <glyph glyph-name="threesuperior" unicode="&#xb3;" horiz-adv-x="349" 
d="M309 450c0 -66 -60 -105 -139 -105c-72 0 -120 34 -135 98l95 21c7 -24 21 -34 40 -34c20 0 37 12 37 31c0 30 -24 34 -46 34h-29v69h26c26 0 42 10 42 29c0 15 -10 27 -29 27c-16 0 -29 -9 -34 -26l-94 20c17 59 68 91 128 91c71 0 130 -27 130 -95
c0 -45 -32 -67 -68 -76c47 -9 76 -43 76 -84z" />
    <glyph glyph-name="twosuperior" unicode="&#xb2;" horiz-adv-x="344" 
d="M40 421l107 94c42 36 53 51 53 75c0 19 -14 30 -31 30c-19 0 -31 -15 -33 -33l-96 9c8 66 54 109 128 109s133 -35 133 -110c0 -44 -19 -69 -76 -118l-44 -39h123v-88h-264v71z" />
    <glyph glyph-name="currency" unicode="&#xa4;" horiz-adv-x="662" 
d="M332 85c-145 0 -253 113 -253 252s108 252 253 252c148 0 255 -113 255 -252s-107 -252 -255 -252zM332 197c79 0 135 62 135 140s-58 140 -135 140s-133 -62 -133 -140s58 -140 133 -140zM105 513l-55 53l50 52l55 -56zM561 56l-54 56l50 49l55 -53zM507 562l54 56
l51 -52l-55 -53zM50 108l55 53l50 -49l-55 -56z" />
    <glyph glyph-name="onehalf" unicode="&#xbd;" horiz-adv-x="752" 
d="M447 71l107 94c42 36 53 51 53 75c0 19 -14 30 -31 30c-19 0 -31 -15 -33 -33l-96 9c8 66 54 109 128 109s133 -35 133 -110c0 -44 -19 -69 -76 -118l-44 -39h123v-88h-264v71zM117 611l-56 -33l-36 69l100 53h91v-350h-99v261zM87 -38l447 817l79 -43l-447 -817z" />
    <glyph glyph-name="tonos" unicode="&#x384;" horiz-adv-x="503" 
d="M142 580l103 178l132 -58l-128 -120h-107z" />
    <glyph glyph-name="dieresistonos" unicode="&#x385;" horiz-adv-x="503" 
d="M174 580l56 195l119 -39l-85 -156h-90zM478 644c0 -37 -29 -67 -68 -67c-37 0 -65 33 -65 67s29 66 63 66c37 0 70 -29 70 -66zM159 644c0 -37 -29 -67 -68 -67c-37 0 -65 33 -65 67s29 66 63 66c38 0 70 -29 70 -66z" />
    <glyph glyph-name="anoteleia" unicode="&#x387;" horiz-adv-x="291" 
d="M236 316c0 -51 -39 -90 -90 -90c-52 0 -91 39 -91 90c0 52 39 91 91 91c51 0 90 -39 90 -91z" />
    <glyph glyph-name="Alpha" unicode="&#x391;" horiz-adv-x="763" 
d="M176 0h-167l304 703h138l303 -703h-171l-59 144h-289zM379 499l-91 -225h183l-90 225h-2z" />
    <glyph glyph-name="Alphatonos" unicode="&#x386;" horiz-adv-x="763" 
d="M-5 580l103 178l132 -58l-128 -120h-107zM176 0h-167l304 703h138l303 -703h-171l-59 144h-289zM379 499l-91 -225h183l-90 225h-2z" />
    <glyph glyph-name="Beta" unicode="&#x392;" horiz-adv-x="687" 
d="M238 417h116c67 0 102 29 102 77c0 46 -20 74 -84 74h-134v-151zM238 132h150c67 0 107 28 107 81c0 47 -39 75 -117 75h-140v-156zM506 373v-2c81 -20 147 -79 147 -175c0 -122 -102 -196 -260 -196h-313v700h304c129 0 230 -51 230 -180c0 -79 -55 -126 -108 -147z" />
    <glyph glyph-name="Gamma" unicode="&#x393;" horiz-adv-x="579" 
d="M80 0v700h479v-144h-321v-556h-158z" />
    <glyph glyph-name="Delta" unicode="&#x2206;" horiz-adv-x="772" 
d="M535 141l-149 365l-2 -1l-151 -364h302zM9 0l309 703h138l307 -703h-754z" />
    <glyph glyph-name="uni0394" unicode="&#x394;" horiz-adv-x="772" 
d="M535 141l-149 365l-2 -1l-151 -364h302zM9 0l309 703h138l307 -703h-754z" />
    <glyph glyph-name="Epsilon" unicode="&#x395;" horiz-adv-x="642" 
d="M80 0v700h503v-143h-345v-128h307v-139h-307v-146h354v-144h-512z" />
    <glyph glyph-name="Epsilontonos" unicode="&#x388;" horiz-adv-x="642" 
d="M-189 580l103 178l132 -58l-128 -120h-107zM80 0v700h503v-143h-345v-128h307v-139h-307v-146h354v-144h-512z" />
    <glyph glyph-name="Zeta" unicode="&#x396;" horiz-adv-x="665" 
d="M616 0h-566v144l364 412h-353v144h544v-147l-357 -409h368v-144z" />
    <glyph glyph-name="Eta" unicode="&#x397;" horiz-adv-x="759" 
d="M80 0v700h158v-269h284v269h158v-700h-158v288h-284v-288h-158z" />
    <glyph glyph-name="Etatonos" unicode="&#x389;" horiz-adv-x="759" 
d="M-189 580l103 178l132 -58l-128 -120h-107zM80 0v700h158v-269h284v269h158v-700h-158v288h-284v-288h-158z" />
    <glyph glyph-name="Theta" unicode="&#x398;" horiz-adv-x="867" 
d="M558 288h-249v138h249v-138zM432 -10c-215 0 -382 145 -382 360c0 216 159 360 384 360c216 0 383 -144 383 -360s-159 -360 -385 -360zM434 134c124 0 219 82 219 216s-97 216 -221 216s-218 -82 -218 -216s96 -216 220 -216z" />
    <glyph glyph-name="Iota" unicode="&#x399;" horiz-adv-x="317" 
d="M80 0v700h158v-700h-158z" />
    <glyph glyph-name="Iotadieresis" unicode="&#x3aa;" horiz-adv-x="317" 
d="M338 817c0 -45 -33 -81 -80 -81c-45 0 -78 39 -78 81c0 41 34 78 76 78c45 0 82 -32 82 -78zM143 817c0 -45 -35 -81 -81 -81c-44 0 -78 39 -78 81c0 41 35 78 76 78c44 0 83 -32 83 -78zM80 0v700h158v-700h-158z" />
    <glyph glyph-name="Iotatonos" unicode="&#x38a;" horiz-adv-x="317" 
d="M-189 580l103 178l132 -58l-128 -120h-107zM80 0v700h158v-700h-158z" />
    <glyph glyph-name="Kappa" unicode="&#x39a;" horiz-adv-x="726" 
d="M238 700v-301l275 301h191l-284 -295l296 -405h-189l-212 295l-77 -80v-215h-158v700h158z" />
    <glyph glyph-name="Lambda" unicode="&#x39b;" horiz-adv-x="720" 
d="M357 492l-184 -492h-164l282 703h138l281 -703h-169l-182 492h-2z" />
    <glyph glyph-name="Mu" unicode="&#x39c;" horiz-adv-x="881" 
d="M642 446l-198 -291h-8l-200 291h-2v-446h-154v700h161l199 -291l198 291h164v-700h-158v446h-2z" />
    <glyph glyph-name="Nu" unicode="&#x39d;" horiz-adv-x="813" 
d="M577 276h3v424h154v-700h-136l-361 445h-2v-445h-155v700h155z" />
    <glyph glyph-name="Xi" unicode="&#x39e;" horiz-adv-x="660" 
d="M57 553v147h544v-147h-544zM50 0v149h560v-149h-560zM89 285v147h481v-147h-481z" />
    <glyph glyph-name="Omicron" unicode="&#x39f;" horiz-adv-x="854" 
d="M426 -10c-215 0 -376 155 -376 360s153 360 378 360c215 0 377 -155 377 -360s-154 -360 -379 -360zM428 134c124 0 213 87 213 216s-91 216 -215 216s-212 -87 -212 -216s90 -216 214 -216z" />
    <glyph glyph-name="Omicrontonos" unicode="&#x38c;" horiz-adv-x="854" 
d="M-99 580l103 178l132 -58l-128 -120h-107zM426 -10c-215 0 -376 155 -376 360s153 360 378 360c215 0 377 -155 377 -360s-154 -360 -379 -360zM428 134c124 0 213 87 213 216s-91 216 -215 216s-212 -87 -212 -216s90 -216 214 -216z" />
    <glyph glyph-name="Pi" unicode="&#x3a0;" horiz-adv-x="742" 
d="M80 0v700h583v-700h-158v554h-267v-554h-158z" />
    <glyph glyph-name="Rho" unicode="&#x3a1;" horiz-adv-x="637" 
d="M608 484c0 -152 -117 -217 -266 -217h-104v-267h-158v700h258c147 0 270 -65 270 -216zM444 484c0 69 -51 83 -110 83h-96v-168h97c54 0 109 18 109 85z" />
    <glyph glyph-name="Sigma" unicode="&#x3a3;" horiz-adv-x="664" 
d="M65 576v124h539v-142h-317l166 -192l-193 -223h354v-143h-564v123l202 235z" />
    <glyph glyph-name="Tau" unicode="&#x3a4;" horiz-adv-x="610" 
d="M586 556h-202v-556h-158v556h-201v144h561v-144z" />
    <glyph glyph-name="Upsilon" unicode="&#x3a5;" horiz-adv-x="697" 
d="M351 442l153 258h183l-260 -416v-284h-158v284l-259 416h189l150 -258h2z" />
    <glyph glyph-name="Upsilondieresis" unicode="&#x3ab;" horiz-adv-x="697" 
d="M528 817c0 -45 -33 -81 -80 -81c-45 0 -78 39 -78 81c0 41 34 78 76 78c45 0 82 -32 82 -78zM333 817c0 -45 -35 -81 -81 -81c-44 0 -78 39 -78 81c0 41 35 78 76 78c44 0 83 -32 83 -78zM351 442l153 258h183l-260 -416v-284h-158v284l-259 416h189l150 -258h2z" />
    <glyph glyph-name="Upsilontonos" unicode="&#x38e;" horiz-adv-x="697" 
d="M-239 580l103 178l132 -58l-128 -120h-107zM351 442l153 258h183l-260 -416v-284h-158v284l-259 416h189l150 -258h2z" />
    <glyph glyph-name="Phi" unicode="&#x3a6;" horiz-adv-x="910" 
d="M379 -10v65c-190 10 -329 112 -329 297c0 184 140 293 329 306v52h152v-52c191 -11 330 -122 330 -306c0 -185 -140 -285 -330 -297v-65h-152zM209 352c0 -92 63 -155 170 -166v342c-107 -10 -170 -85 -170 -176zM702 352c0 91 -64 164 -171 175v-342
c107 10 171 75 171 167z" />
    <glyph glyph-name="Chi" unicode="&#x3a7;" horiz-adv-x="711" 
d="M677 700l-232 -339l246 -361h-184l-154 239l-154 -239h-179l244 358l-231 342h184l139 -220l142 220h179z" />
    <glyph glyph-name="Psi" unicode="&#x3a8;" horiz-adv-x="839" 
d="M343 0v130c-171 6 -278 88 -278 291v279h151v-278c0 -104 46 -152 127 -159v437h152v-437c83 7 129 57 129 165v272h151v-279c0 -196 -112 -285 -280 -291v-130h-152z" />
    <glyph glyph-name="Omega" unicode="&#x2126;" horiz-adv-x="851" 
d="M478 0v141c94 28 157 116 157 226c0 113 -79 199 -211 199s-208 -86 -208 -199c0 -102 61 -200 158 -226v-141h-316v141h112c-79 48 -117 130 -117 229c0 191 145 340 373 340c229 0 372 -155 372 -340c0 -99 -40 -181 -118 -229h113v-141h-315z" />
    <glyph glyph-name="uni03A9" unicode="&#x3a9;" horiz-adv-x="851" 
d="M478 0v141c94 28 157 116 157 226c0 113 -79 199 -211 199s-208 -86 -208 -199c0 -102 61 -200 158 -226v-141h-316v141h112c-79 48 -117 130 -117 229c0 191 145 340 373 340c229 0 372 -155 372 -340c0 -99 -40 -181 -118 -229h113v-141h-315z" />
    <glyph glyph-name="Omegatonos" unicode="&#x38f;" horiz-adv-x="851" 
d="M478 0v141c94 28 157 116 157 226c0 113 -79 199 -211 199s-208 -86 -208 -199c0 -102 61 -200 158 -226v-141h-316v141h112c-79 48 -117 130 -117 229c0 191 145 340 373 340c229 0 372 -155 372 -340c0 -99 -40 -181 -118 -229h113v-141h-315zM-99 580l103 178l132 -58
l-128 -120h-107z" />
    <glyph glyph-name="alpha" unicode="&#x3b1;" horiz-adv-x="634" 
d="M272 -10c-119 0 -232 85 -232 265c0 181 111 265 228 265c67 0 113 -25 147 -63h2v64h152v-521h-152v53h-2c-32 -38 -76 -63 -143 -63zM310 122c61 0 116 50 116 133c0 86 -55 134 -116 134s-119 -50 -119 -134c0 -86 53 -133 119 -133z" />
    <glyph glyph-name="alphatonos" unicode="&#x3ac;" horiz-adv-x="634" 
d="M255 580l103 178l132 -58l-128 -120h-107zM272 -10c-119 0 -232 85 -232 265c0 181 111 265 228 265c67 0 113 -25 147 -63h2v64h152v-521h-152v53h-2c-32 -38 -76 -63 -143 -63zM310 122c61 0 116 50 116 133c0 86 -55 134 -116 134s-119 -50 -119 -134
c0 -86 53 -133 119 -133z" />
    <glyph glyph-name="beta" unicode="&#x3b2;" horiz-adv-x="634" 
d="M324 123c63 0 119 28 119 106c0 81 -62 113 -124 113h-30v125h26c52 0 80 41 80 87c0 52 -47 76 -90 76c-51 0 -89 -39 -89 -104v-278c0 -112 86 -125 108 -125zM219 50h-3v-240h-151v712c0 148 96 238 246 238c143 0 234 -80 234 -191c0 -67 -47 -129 -112 -150
c107 -32 162 -106 162 -200c0 -130 -101 -229 -234 -229c-54 0 -103 17 -142 60z" />
    <glyph glyph-name="gamma" unicode="&#x3b3;" horiz-adv-x="587" 
d="M295 169l119 341h158l-204 -520v-180h-152v185l-201 515h161l117 -341h2z" />
    <glyph glyph-name="delta" unicode="&#x3b4;" horiz-adv-x="624" 
d="M313 122c81 0 119 65 119 128c0 52 -32 126 -113 126c-95 0 -128 -65 -128 -126c0 -64 42 -128 122 -128zM333 626l142 -141c72 -72 109 -137 109 -235c0 -138 -102 -260 -273 -260s-271 121 -271 260c0 146 109 237 229 237c2 0 11 0 14 -1l-171 158v106h411v-124h-190z
" />
    <glyph glyph-name="epsilon" unicode="&#x3b5;" horiz-adv-x="553" 
d="M147 263v2c-44 14 -81 55 -81 111c0 107 116 144 214 144c109 0 172 -30 226 -82l-85 -86c-52 44 -90 51 -139 51c-27 0 -69 -8 -69 -48c0 -42 35 -45 56 -45h101v-95h-106c-43 0 -70 -17 -70 -53c0 -37 32 -55 91 -55c65 0 119 28 153 61l85 -85
c-54 -50 -132 -93 -242 -93c-180 0 -236 66 -236 155c0 60 44 103 102 118z" />
    <glyph glyph-name="epsilontonos" unicode="&#x3ad;" horiz-adv-x="553" 
d="M238 580l103 178l132 -58l-128 -120h-107zM147 263v2c-44 14 -81 55 -81 111c0 107 116 144 214 144c109 0 172 -30 226 -82l-85 -86c-52 44 -90 51 -139 51c-27 0 -69 -8 -69 -48c0 -42 35 -45 56 -45h101v-95h-106c-43 0 -70 -17 -70 -53c0 -37 32 -55 91 -55
c65 0 119 28 153 61l85 -85c-54 -50 -132 -93 -242 -93c-180 0 -236 66 -236 155c0 60 44 103 102 118z" />
    <glyph glyph-name="zeta" unicode="&#x3b6;" horiz-adv-x="522" 
d="M330 620h-243v130h430v-111c-190 -143 -322 -314 -322 -430c0 -48 11 -74 115 -86c133 -15 202 -44 202 -139c0 -49 -21 -125 -28 -157h-124c9 36 21 95 21 117c0 37 -37 43 -97 49c-197 18 -244 89 -244 198c0 131 132 302 290 429z" />
    <glyph glyph-name="eta" unicode="&#x3b7;" horiz-adv-x="589" 
d="M65 0v510h151v-52h2c34 40 81 62 140 62c96 0 177 -69 177 -196v-514h-151v478c0 67 -40 101 -84 101c-48 0 -84 -35 -84 -103v-286h-151z" />
    <glyph glyph-name="etatonos" unicode="&#x3ae;" horiz-adv-x="589" 
d="M255 580l103 178l132 -58l-128 -120h-107zM65 0v510h151v-52h2c34 40 81 62 140 62c96 0 177 -69 177 -196v-514h-151v478c0 67 -40 101 -84 101c-48 0 -84 -35 -84 -103v-286h-151z" />
    <glyph glyph-name="theta" unicode="&#x3b8;" horiz-adv-x="647" 
d="M589 373c0 -204 -80 -383 -267 -383c-186 0 -264 178 -264 383c0 206 80 387 266 387c188 0 265 -183 265 -387zM435 443c-3 109 -42 194 -113 194s-109 -85 -112 -194h225zM208 319c3 -123 41 -201 116 -201c77 0 110 78 113 201h-229z" />
    <glyph glyph-name="iota" unicode="&#x3b9;" horiz-adv-x="287" 
d="M67 0v510h152v-510h-152z" />
    <glyph glyph-name="iotadieresis" unicode="&#x3ca;" horiz-adv-x="287" 
d="M326 658c0 -45 -33 -81 -80 -81c-45 0 -78 39 -78 81c0 41 34 78 76 78c45 0 82 -32 82 -78zM131 658c0 -45 -35 -81 -81 -81c-44 0 -78 39 -78 81c0 41 35 78 76 78c44 0 83 -32 83 -78zM67 0v510h152v-510h-152z" />
    <glyph glyph-name="iotadieresistonos" unicode="&#x390;" horiz-adv-x="287" 
d="M89 580l56 195l119 -39l-85 -156h-90zM393 644c0 -37 -29 -67 -68 -67c-37 0 -65 33 -65 67s29 66 63 66c37 0 70 -29 70 -66zM74 644c0 -37 -29 -67 -68 -67c-37 0 -65 33 -65 67s29 66 63 66c38 0 70 -29 70 -66zM67 0v510h152v-510h-152z" />
    <glyph glyph-name="iotatonos" unicode="&#x3af;" horiz-adv-x="287" 
d="M93 580l103 178l132 -58l-128 -120h-107zM67 0v510h152v-510h-152z" />
    <glyph glyph-name="kappa" unicode="&#x3ba;" horiz-adv-x="553" 
d="M216 510v-171l154 171h175l-190 -203l194 -307h-168l-125 201l-40 -43v-158h-151v510h151z" />
    <glyph glyph-name="lambda" unicode="&#x3bb;" horiz-adv-x="575" 
d="M235 510l-19 56c-20 60 -55 62 -72 62c-23 0 -38 -3 -58 -7l-17 129c24 5 65 10 91 10c92 0 141 -39 182 -151l219 -609h-158l-104 317h-3l-118 -317h-163z" />
    <glyph glyph-name="mu" unicode="&#xb5;" horiz-adv-x="599" 
d="M217 46h-2v-236h-150v700h150v-282c0 -65 29 -106 89 -106c38 0 79 31 79 102v286h152v-510h-152v52h-2c-15 -29 -43 -58 -84 -58c-43 0 -66 24 -80 52z" />
    <glyph glyph-name="uni03BC" unicode="&#x3bc;" horiz-adv-x="599" 
d="M217 46h-2v-236h-150v700h150v-282c0 -65 29 -106 89 -106c38 0 79 31 79 102v286h152v-510h-152v52h-2c-15 -29 -43 -58 -84 -58c-43 0 -66 24 -80 52z" />
    <glyph glyph-name="nu" unicode="&#x3bd;" horiz-adv-x="587" 
d="M219 -4l-204 514h161l117 -329h2l119 329h158l-205 -514h-148z" />
    <glyph glyph-name="xi" unicode="&#x3be;" horiz-adv-x="542" 
d="M486 337h-164c-61 0 -127 -20 -127 -106c0 -46 22 -88 120 -104c145 -23 217 -50 217 -141c0 -50 -22 -126 -28 -159h-124c8 33 17 74 17 96c0 63 -73 65 -140 78c-157 30 -217 108 -217 218c0 70 32 160 167 195c-91 19 -109 77 -109 114c0 33 18 90 103 106h-123v116
h460v-129h-165c-81 0 -123 -21 -123 -78c0 -54 45 -74 98 -74h138v-132z" />
    <glyph glyph-name="omicron" unicode="&#x3bf;" horiz-adv-x="624" 
d="M311 -10c-155 0 -271 111 -271 265s117 265 273 265c155 0 271 -111 271 -265s-117 -265 -273 -265zM313 122c74 0 119 60 119 133c0 71 -48 134 -121 134c-74 0 -120 -61 -120 -134c0 -71 49 -133 122 -133z" />
    <glyph glyph-name="omicrontonos" unicode="&#x3cc;" horiz-adv-x="624" 
d="M265 580l103 178l132 -58l-128 -120h-107zM311 -10c-155 0 -271 111 -271 265s117 265 273 265c155 0 271 -111 271 -265s-117 -265 -273 -265zM313 122c74 0 119 60 119 133c0 71 -48 134 -121 134c-74 0 -120 -61 -120 -134c0 -71 49 -133 122 -133z" />
    <glyph glyph-name="pi" unicode="&#x3c0;" horiz-adv-x="590" 
d="M65 0v510h460v-510h-151v384h-157v-384h-152z" />
    <glyph glyph-name="rho" unicode="&#x3c1;" horiz-adv-x="624" 
d="M310 120c76 0 117 59 117 135c0 78 -37 136 -115 136c-73 0 -118 -57 -118 -136c0 -71 39 -135 116 -135zM204 33h-2v-223h-152v445c0 151 101 265 263 265c154 0 266 -99 266 -259c0 -171 -126 -271 -253 -271c-52 0 -93 17 -122 43z" />
    <glyph glyph-name="sigma" unicode="&#x3c3;" horiz-adv-x="637" 
d="M312 510h295v-117h-111v-2c53 -22 88 -85 88 -145c0 -151 -120 -256 -273 -256c-152 0 -271 106 -271 260c0 153 116 260 272 260zM313 122c74 0 119 55 119 128c0 71 -48 131 -121 131c-74 0 -120 -58 -120 -131c0 -71 49 -128 122 -128z" />
    <glyph glyph-name="tau" unicode="&#x3c4;" horiz-adv-x="485" 
d="M167 0v380h-142v130h435v-130h-141v-380h-152z" />
    <glyph glyph-name="upsilon" unicode="&#x3c5;" horiz-adv-x="579" 
d="M524 510v-284c0 -113 -49 -236 -236 -236s-234 123 -234 236v284h152v-276c0 -71 26 -112 83 -112s84 41 84 112v276h151z" />
    <glyph glyph-name="upsilondieresis" unicode="&#x3cb;" horiz-adv-x="579" 
d="M463 658c0 -45 -33 -81 -80 -81c-45 0 -78 39 -78 81c0 41 34 78 76 78c45 0 82 -32 82 -78zM268 658c0 -45 -35 -81 -81 -81c-44 0 -78 39 -78 81c0 41 35 78 76 78c44 0 83 -32 83 -78zM524 510v-284c0 -113 -49 -236 -236 -236s-234 123 -234 236v284h152v-276
c0 -71 26 -112 83 -112s84 41 84 112v276h151z" />
    <glyph glyph-name="upsilondieresistonos" unicode="&#x3b0;" horiz-adv-x="579" 
d="M231 580l56 195l119 -39l-85 -156h-90zM535 644c0 -37 -29 -67 -68 -67c-37 0 -65 33 -65 67s29 66 63 66c37 0 70 -29 70 -66zM216 644c0 -37 -29 -67 -68 -67c-37 0 -65 33 -65 67s29 66 63 66c38 0 70 -29 70 -66zM524 510v-284c0 -113 -49 -236 -236 -236
s-234 123 -234 236v284h152v-276c0 -71 26 -112 83 -112s84 41 84 112v276h151z" />
    <glyph glyph-name="upsilontonos" unicode="&#x3cd;" horiz-adv-x="579" 
d="M232 580l103 178l132 -58l-128 -120h-107zM524 510v-284c0 -113 -49 -236 -236 -236s-234 123 -234 236v284h152v-276c0 -71 26 -112 83 -112s84 41 84 112v276h151z" />
    <glyph glyph-name="phi" unicode="&#x3c6;" horiz-adv-x="768" 
d="M312 -190v183c-185 13 -272 119 -272 255c0 137 73 220 196 261l40 -118c-55 -20 -92 -66 -92 -141c0 -81 48 -127 128 -140v407c44 3 67 3 81 3c171 0 335 -60 335 -265c0 -147 -83 -242 -271 -261v-184h-145zM584 257c0 98 -60 128 -127 136v-283c83 16 127 57 127 147
z" />
    <glyph glyph-name="chi" unicode="&#x3c7;" horiz-adv-x="581" 
d="M389 0l-100 147h-2l-99 -147h-173l187 260l-180 250h177l91 -136h2l90 136h173l-179 -248l190 -262h-177z" />
    <glyph glyph-name="psi" unicode="&#x3c8;" horiz-adv-x="762" 
d="M708 510v-278c0 -121 -63 -235 -254 -239v-183h-145v183c-191 4 -255 118 -255 239v278h152v-271c0 -69 24 -118 103 -123v557h145v-557c79 5 103 54 103 123v271h151z" />
    <glyph glyph-name="omega" unicode="&#x3c9;" horiz-adv-x="794" 
d="M610 241c0 40 -17 145 -119 151l20 128c161 -10 244 -122 244 -277c0 -158 -85 -253 -207 -253c-51 0 -115 15 -151 92c-36 -78 -100 -92 -151 -92c-122 0 -206 95 -206 253c0 155 83 267 243 277l21 -128c-102 -6 -120 -111 -120 -151c0 -77 26 -123 76 -123
c51 0 65 30 65 92v131h145v-131c0 -62 14 -92 64 -92s76 46 76 123z" />
    <glyph glyph-name="omegatonos" unicode="&#x3ce;" horiz-adv-x="794" 
d="M353 580l103 178l132 -58l-128 -120h-107zM610 241c0 40 -17 145 -119 151l20 128c161 -10 244 -122 244 -277c0 -158 -85 -253 -207 -253c-51 0 -115 15 -151 92c-36 -78 -100 -92 -151 -92c-122 0 -206 95 -206 253c0 155 83 267 243 277l21 -128
c-102 -6 -120 -111 -120 -151c0 -77 26 -123 76 -123c51 0 65 30 65 92v131h145v-131c0 -62 14 -92 64 -92s76 46 76 123z" />
    <glyph glyph-name="brokenbar" unicode="&#xa6;" horiz-adv-x="351" 
d="M251 437h-151v343h151v-343zM251 -99h-151v342h151v-342z" />
    <glyph glyph-name="uni00AD" unicode="&#xad;" horiz-adv-x="409" 
d="M50 229v148h309v-148h-309z" />
    <glyph glyph-name="uni037E" unicode="&#x37e;" horiz-adv-x="291" 
d="M236 429c0 -51 -39 -90 -90 -90c-52 0 -91 39 -91 90c0 52 39 91 91 91c51 0 90 -39 90 -91zM52 -138l44 146c-25 16 -41 44 -41 78c0 51 39 91 91 91c50 0 90 -39 90 -88c0 -13 0 -32 -16 -58l-108 -169h-60z" />
    <glyph glyph-name="plusminus" unicode="&#xb1;" horiz-adv-x="581" 
d="M526 311h-178v-162h-112v162h-181v109h181v156h112v-156h178v-109zM526 0h-471v109h471v-109z" />
    <glyph glyph-name="nbspace" unicode="&#xa0;" horiz-adv-x="163" 
 />
    <glyph glyph-name="Abreve" unicode="&#x102;" horiz-adv-x="763" 
d="M176 0h-167l304 703h138l303 -703h-171l-59 144h-289zM379 499l-91 -225h183l-90 225h-2zM380 742c-106 0 -180 59 -189 160h103c12 -36 36 -60 86 -60s74 24 86 60h103c-9 -101 -82 -160 -189 -160z" />
    <glyph glyph-name="Gbreve" unicode="&#x11e;" horiz-adv-x="759" 
d="M683 609l-106 -112c-43 42 -77 69 -156 69c-112 0 -207 -85 -207 -216s92 -216 203 -216c68 0 107 14 136 29v117h-126v133h278v-344c-98 -54 -180 -79 -288 -79c-221 0 -367 156 -367 360s149 360 373 360c112 0 187 -34 260 -101zM398 742c-106 0 -180 59 -189 160h103
c12 -36 36 -60 86 -60s74 24 86 60h103c-9 -101 -82 -160 -189 -160z" />
    <glyph glyph-name="Idotaccent" unicode="&#x130;" horiz-adv-x="317" 
d="M80 0v700h158v-700h-158zM247 833c0 -48 -39 -87 -88 -87c-48 0 -87 39 -87 87c0 49 39 88 87 88c49 0 88 -39 88 -88z" />
    <glyph glyph-name="Scedilla" unicode="&#x15e;" horiz-adv-x="598" 
d="M558 212c0 -159 -131 -222 -258 -222c-92 0 -203 26 -271 89l109 119c33 -37 110 -62 161 -62c56 0 99 19 99 64c0 46 -43 66 -96 82c-88 28 -244 75 -244 218c0 154 115 210 255 210c90 0 174 -30 227 -78l-87 -114c-32 26 -89 52 -138 52c-42 0 -94 -11 -94 -63
c0 -47 67 -70 138 -92c81 -26 199 -75 199 -203zM431 -130c0 -73 -89 -97 -140 -97c-40 0 -90 13 -125 30l25 47c16 -7 42 -17 77 -17c31 0 66 6 66 32c0 24 -30 30 -50 30c-11 0 -23 -3 -36 -8l-32 30l62 93h67l-41 -60c8 0 14 0 21 -1c53 -3 106 -22 106 -79z" />
    <glyph glyph-name="abreve" unicode="&#x103;" horiz-adv-x="573" 
d="M260 316c34 0 73 -4 108 -12v20c0 54 -41 77 -97 77c-43 0 -94 -11 -150 -45l-54 102c53 36 133 62 209 62c129 0 237 -48 237 -198v-322h-145v60h-2c-29 -40 -86 -70 -146 -70c-95 0 -180 45 -180 160s111 166 220 166zM368 194v11c-26 9 -62 15 -95 15
c-41 0 -92 -17 -92 -67c0 -41 32 -62 77 -62c49 0 110 34 110 103zM286 570c-106 0 -180 59 -189 160h103c12 -36 36 -60 86 -60s74 24 86 60h103c-9 -101 -82 -160 -189 -160z" />
    <glyph glyph-name="gbreve" unicode="&#x11f;" horiz-adv-x="635" 
d="M288 -195c-82 0 -166 27 -229 61l66 115c52 -28 110 -41 158 -41c78 0 135 30 135 121v46h-2c-34 -51 -84 -72 -153 -72c-118 0 -223 88 -223 243c0 156 107 242 223 242c78 0 123 -24 153 -65h2v55h152v-444c0 -180 -104 -261 -282 -261zM304 166c65 0 117 45 117 112
c0 64 -52 111 -117 111c-64 0 -112 -47 -112 -113c0 -65 48 -110 112 -110zM316 570c-106 0 -180 59 -189 160h103c12 -36 36 -60 86 -60s74 24 86 60h103c-9 -101 -82 -160 -189 -160z" />
    <glyph glyph-name="commaaccent" unicode="&#xf6c3;" horiz-adv-x="305" 
d="M154 -37c50 0 91 -38 91 -88c0 -13 0 -32 -16 -57l-108 -169h-61l45 145c-26 17 -42 45 -42 78c0 52 40 91 91 91z" />
    <glyph glyph-name="Scommaaccent" unicode="&#x218;" horiz-adv-x="598" 
d="M319 -37c50 0 91 -38 91 -88c0 -13 0 -32 -16 -57l-108 -169h-61l45 145c-26 17 -42 45 -42 78c0 52 40 91 91 91zM558 212c0 -159 -131 -222 -258 -222c-92 0 -203 26 -271 89l109 119c33 -37 110 -62 161 -62c56 0 99 19 99 64c0 46 -43 66 -96 82
c-88 28 -244 75 -244 218c0 154 115 210 255 210c90 0 174 -30 227 -78l-87 -114c-32 26 -89 52 -138 52c-42 0 -94 -11 -94 -63c0 -47 67 -70 138 -92c81 -26 199 -75 199 -203z" />
    <glyph glyph-name="Tcommaaccent" unicode="&#x162;" horiz-adv-x="610" 
d="M306 -37c50 0 91 -38 91 -88c0 -13 0 -32 -16 -57l-108 -169h-61l45 145c-26 17 -42 45 -42 78c0 52 40 91 91 91zM586 556h-202v-556h-158v556h-201v144h561v-144z" />
    <glyph glyph-name="scedilla" unicode="&#x15f;" horiz-adv-x="469" 
d="M216 -10c-70 0 -132 16 -197 58l82 101c43 -32 79 -44 119 -44c33 0 57 9 57 33c0 31 -39 41 -92 61c-61 24 -145 57 -145 159c0 103 87 162 190 162c82 0 139 -19 187 -57l-77 -94c-31 23 -67 36 -102 36c-32 0 -46 -18 -46 -39c0 -42 71 -58 105 -70
c72 -25 132 -69 132 -145c0 -113 -104 -161 -213 -161zM368 -130c0 -73 -89 -97 -140 -97c-40 0 -90 13 -125 30l25 47c16 -7 42 -17 77 -17c31 0 66 6 66 32c0 24 -30 30 -50 30c-11 0 -23 -3 -36 -8l-32 30l62 93h67l-41 -60c8 0 14 0 21 -1c53 -3 106 -22 106 -79z" />
    <glyph glyph-name="scommaaccent" unicode="&#x219;" horiz-adv-x="469" 
d="M235 -37c50 0 91 -38 91 -88c0 -13 0 -32 -16 -57l-108 -169h-61l45 145c-26 17 -42 45 -42 78c0 52 40 91 91 91zM216 -10c-70 0 -132 16 -197 58l82 101c43 -32 79 -44 119 -44c33 0 57 9 57 33c0 31 -39 41 -92 61c-61 24 -145 57 -145 159c0 103 87 162 190 162
c82 0 139 -19 187 -57l-77 -94c-31 23 -67 36 -102 36c-32 0 -46 -18 -46 -39c0 -42 71 -58 105 -70c72 -25 132 -69 132 -145c0 -113 -104 -161 -213 -161z" />
    <glyph glyph-name="tcommaaccent" unicode="&#x163;" horiz-adv-x="444" 
d="M222 -37c50 0 91 -38 91 -88c0 -13 0 -32 -16 -57l-108 -169h-61l45 145c-26 17 -42 45 -42 78c0 52 40 91 91 91zM271 -10c-83 0 -157 36 -157 175v215h-94v130h94v127h152v-127h127v-130h-127v-195c0 -53 28 -63 51 -63c17 0 43 2 76 9v-124c-46 -16 -90 -17 -122 -17z
" />
    <glyph glyph-name="sigma1" unicode="&#x3c2;" horiz-adv-x="541" 
d="M293 116c126 -44 181 -71 181 -162c0 -35 -10 -78 -23 -127h-123c8 39 16 65 16 89c0 50 -71 65 -121 81c-139 45 -183 140 -183 257c0 144 99 266 264 266c101 0 167 -34 217 -95l-105 -89c-35 40 -65 54 -113 54c-70 0 -112 -65 -112 -133c0 -56 9 -109 102 -141z" />
    <glyph glyph-name="uni03D7" unicode="&#x3d7;" horiz-adv-x="997" 
d="M734 510l-189 -174l101 -120c33 -40 72 -69 111 -69c69 0 110 86 110 152c0 216 -160 346 -363 346c-210 0 -385 -168 -385 -387c0 -199 147 -357 363 -357c92 0 162 22 235 64l32 -54c-79 -47 -164 -75 -268 -75c-251 0 -431 189 -431 421c0 231 187 453 453 453
c235 0 444 -156 444 -408c0 -153 -111 -248 -219 -248c-81 0 -133 35 -191 105l-80 95l-80 -75l-25 -99h-127l106 430h127l-40 -164l169 164h147z" />
    <glyph glyph-name="zero.onum" horiz-adv-x="632" 
d="M425 253c0 81 -49 132 -110 132c-59 0 -107 -50 -107 -132c0 -79 48 -127 107 -127c61 0 110 48 110 127zM582 253c0 -156 -113 -263 -267 -263c-153 0 -265 106 -265 263s111 267 265 267s267 -109 267 -267z" />
    <glyph glyph-name="one.onum" horiz-adv-x="407" 
d="M162 358l-88 -54l-65 111l163 95h145v-510h-155v358z" />
    <glyph glyph-name="two.onum" horiz-adv-x="545" 
d="M309 124h186v-124h-454v112l189 111c82 49 93 78 93 106c0 36 -27 56 -63 56c-44 0 -68 -41 -76 -72l-150 41c29 95 104 166 227 166s219 -78 219 -187c0 -79 -36 -137 -146 -195z" />
    <glyph glyph-name="three.onum" horiz-adv-x="528" 
d="M165 125v128h52c48 0 83 23 83 69c0 40 -26 63 -61 63c-31 0 -57 -20 -73 -58l-132 61c47 96 119 132 209 132c115 0 212 -60 212 -178c0 -66 -35 -116 -89 -141c63 -29 102 -76 102 -155c0 -151 -134 -211 -230 -211c-89 0 -164 40 -211 105l119 83
c17 -23 43 -52 88 -52s77 31 77 77c0 42 -24 77 -94 77h-52z" />
    <glyph glyph-name="four.onum" horiz-adv-x="552" 
d="M522 2h-78v-111h-155v111h-269v142l248 366h176v-376h78v-132zM289 134v188l-131 -188h131z" />
    <glyph glyph-name="five.onum" horiz-adv-x="506" 
d="M24 -70l113 81c19 -24 49 -40 80 -40c57 0 105 41 105 106c0 61 -40 95 -99 95c-41 0 -75 -15 -109 -39l-78 49l18 328h383v-131h-245l-5 -84c19 4 39 7 62 7c130 0 230 -71 230 -225c0 -151 -118 -242 -260 -242c-64 0 -147 30 -195 95z" />
    <glyph glyph-name="six.onum" horiz-adv-x="590" 
d="M296 -10c-139 0 -251 90 -251 228c0 98 34 154 78 219l150 223h178l-155 -228l1 -2c12 3 24 6 40 6c126 0 209 -96 209 -218c0 -138 -110 -228 -250 -228zM393 223c0 57 -38 99 -97 99c-58 0 -95 -42 -95 -99c0 -55 37 -96 95 -96c59 0 97 41 97 96z" />
    <glyph glyph-name="seven.onum" horiz-adv-x="520" 
d="M491 373l-224 -533h-166l227 537h-303v133h466v-137z" />
    <glyph glyph-name="eight.onum" horiz-adv-x="612" 
d="M306 -10c-145 0 -256 72 -256 194c0 79 38 130 106 162v2c-50 25 -83 65 -83 135c0 99 95 182 233 182c140 0 234 -83 234 -182c0 -70 -34 -110 -84 -135v-2c66 -35 107 -83 107 -162c0 -122 -110 -194 -257 -194zM306 392c55 0 84 28 84 71c0 39 -27 68 -84 68
c-55 0 -84 -29 -84 -68c0 -43 31 -71 84 -71zM306 124c63 0 100 26 100 71c0 48 -44 73 -100 73s-99 -25 -99 -73c0 -45 38 -71 99 -71z" />
    <glyph glyph-name="nine.onum" horiz-adv-x="590" 
d="M133 -160l161 239l-1 2c-11 -4 -24 -7 -40 -7c-126 0 -208 96 -208 218c0 139 109 228 249 228c139 0 252 -89 252 -228c0 -97 -35 -153 -78 -219l-157 -233h-178zM197 287c0 -56 38 -99 97 -99s96 43 96 99c0 55 -38 97 -96 97c-59 0 -97 -42 -97 -97z" />
    <glyph glyph-name="foursuperior" unicode="&#x2074;" horiz-adv-x="355" 
d="M331 416h-42v-66h-99v66h-155v82l114 202h140v-202h42v-82zM190 498v112l-63 -112h63z" />
    <glyph glyph-name="fivesuperior" unicode="&#x2075;" horiz-adv-x="353" 
d="M40 440l92 24c8 -20 17 -33 40 -33c30 0 40 25 40 46c0 20 -6 45 -38 45c-22 0 -35 -7 -54 -19l-67 30l8 167h235v-83h-148l-3 -37c14 7 35 10 47 10c68 0 121 -39 121 -119s-66 -126 -147 -126c-58 0 -108 39 -126 95z" />
    <glyph glyph-name="sixsuperior" unicode="&#x2076;" horiz-adv-x="365" 
d="M183 345c-77 0 -143 51 -143 124c0 51 17 78 42 112l89 119h104l-82 -111l1 -1c7 2 16 3 23 3c67 0 108 -51 108 -115c0 -73 -68 -131 -142 -131zM231 479c0 29 -17 51 -48 51c-30 0 -46 -22 -46 -51c0 -28 15 -50 46 -50s48 22 48 50z" />
    <glyph glyph-name="sevensuperior" unicode="&#x2077;" horiz-adv-x="307" 
d="M287 700v-65l-130 -285h-102l122 266h-157v84h267z" />
    <glyph glyph-name="eightsuperior" unicode="&#x2078;" horiz-adv-x="379" 
d="M190 345c-88 0 -145 41 -145 103c0 42 19 69 54 86v1c-25 14 -44 36 -44 73c0 53 51 97 135 97c85 0 134 -44 134 -97c0 -37 -19 -59 -44 -73v-1c35 -18 54 -44 54 -86c0 -62 -57 -103 -144 -103zM190 560c24 0 42 16 42 35c0 16 -15 32 -42 32c-28 0 -42 -16 -42 -32
c0 -19 17 -35 42 -35zM190 423c32 0 48 15 48 34c0 22 -18 36 -48 36c-29 0 -49 -14 -49 -36c0 -19 16 -34 49 -34z" />
    <glyph glyph-name="ninesuperior" unicode="&#x2079;" horiz-adv-x="365" 
d="M40 574c0 73 68 131 142 131c77 0 143 -51 143 -124c0 -51 -17 -78 -42 -112l-89 -119h-104l82 111l-1 1c-7 -2 -16 -3 -23 -3c-66 0 -108 51 -108 115zM135 571c0 -29 17 -51 47 -51c31 0 46 22 46 51c0 28 -15 50 -46 50s-47 -22 -47 -50z" />
    <glyph glyph-name="zerosuperior" unicode="&#x2070;" horiz-adv-x="400" 
d="M200 345c-89 0 -155 67 -155 180c0 111 67 180 155 180c87 0 155 -68 155 -180s-67 -180 -155 -180zM200 433c30 0 56 27 56 92c0 64 -26 92 -56 92c-31 0 -56 -27 -56 -92c0 -64 24 -92 56 -92z" />
    <glyph glyph-name="zeroinferior" unicode="&#x2080;" horiz-adv-x="400" 
d="M200 -5c-89 0 -155 67 -155 180c0 111 67 180 155 180c87 0 155 -68 155 -180s-67 -180 -155 -180zM200 83c30 0 56 27 56 92c0 64 -26 92 -56 92c-31 0 -56 -27 -56 -92c0 -64 24 -92 56 -92z" />
    <glyph glyph-name="oneinferior" unicode="&#x2081;" horiz-adv-x="285" 
d="M117 261l-56 -33l-36 69l100 53h91v-350h-99v261z" />
    <glyph glyph-name="twoinferior" unicode="&#x2082;" horiz-adv-x="344" 
d="M40 71l107 94c42 36 53 51 53 75c0 19 -14 30 -31 30c-19 0 -31 -15 -33 -33l-96 9c8 66 54 109 128 109s133 -35 133 -110c0 -44 -19 -69 -76 -118l-44 -39h123v-88h-264v71z" />
    <glyph glyph-name="threeinferior" unicode="&#x2083;" horiz-adv-x="349" 
d="M309 100c0 -66 -60 -105 -139 -105c-72 0 -120 34 -135 98l95 21c7 -24 21 -34 40 -34c20 0 37 12 37 31c0 30 -24 34 -46 34h-29v69h26c26 0 42 10 42 29c0 15 -10 27 -29 27c-16 0 -29 -9 -34 -26l-94 20c17 59 68 91 128 91c71 0 130 -27 130 -95
c0 -45 -32 -67 -68 -76c47 -9 76 -43 76 -84z" />
    <glyph glyph-name="fourinferior" unicode="&#x2084;" horiz-adv-x="355" 
d="M331 66h-42v-66h-99v66h-155v82l114 202h140v-202h42v-82zM190 148v112l-63 -112h63z" />
    <glyph glyph-name="fiveinferior" unicode="&#x2085;" horiz-adv-x="353" 
d="M40 90l92 24c8 -20 17 -33 40 -33c30 0 40 25 40 46c0 20 -6 45 -38 45c-22 0 -35 -7 -54 -19l-67 30l8 167h235v-83h-148l-3 -37c14 7 35 10 47 10c68 0 121 -39 121 -119s-66 -126 -147 -126c-58 0 -108 39 -126 95z" />
    <glyph glyph-name="sixinferior" unicode="&#x2086;" horiz-adv-x="365" 
d="M183 -5c-77 0 -143 51 -143 124c0 51 17 78 42 112l89 119h104l-82 -111l1 -1c7 2 16 3 23 3c67 0 108 -51 108 -115c0 -73 -68 -131 -142 -131zM231 129c0 29 -17 51 -48 51c-30 0 -46 -22 -46 -51c0 -28 15 -50 46 -50s48 22 48 50z" />
    <glyph glyph-name="seveninferior" unicode="&#x2087;" horiz-adv-x="307" 
d="M287 350v-65l-130 -285h-102l122 266h-157v84h267z" />
    <glyph glyph-name="eightinferior" unicode="&#x2088;" horiz-adv-x="379" 
d="M190 -5c-88 0 -145 41 -145 103c0 42 19 69 54 86v1c-25 14 -44 36 -44 73c0 53 51 97 135 97c85 0 134 -44 134 -97c0 -37 -19 -59 -44 -73v-1c35 -18 54 -44 54 -86c0 -62 -57 -103 -144 -103zM190 210c24 0 42 16 42 35c0 16 -15 32 -42 32c-28 0 -42 -16 -42 -32
c0 -19 17 -35 42 -35zM190 73c32 0 48 15 48 34c0 22 -18 36 -48 36c-29 0 -49 -14 -49 -36c0 -19 16 -34 49 -34z" />
    <glyph glyph-name="nineinferior" unicode="&#x2089;" horiz-adv-x="365" 
d="M40 224c0 73 68 131 142 131c77 0 143 -51 143 -124c0 -51 -17 -78 -42 -112l-89 -119h-104l82 111l-1 1c-7 -2 -16 -3 -23 -3c-66 0 -108 51 -108 115zM135 221c0 -29 17 -51 47 -51c31 0 46 22 46 51c0 28 -15 50 -46 50s-47 -22 -47 -50z" />
    <glyph glyph-name="parenleftsuperior" unicode="&#x207d;" horiz-adv-x="210" 
d="M190 341l-69 -38c-47 70 -76 139 -76 222c0 82 29 151 76 222l69 -38c-40 -64 -55 -107 -55 -184c0 -78 15 -120 55 -184z" />
    <glyph glyph-name="parenrightsuperior" unicode="&#x207e;" horiz-adv-x="210" 
d="M90 303l-70 38c40 64 55 106 55 184c0 77 -15 120 -55 184l70 38c47 -71 76 -140 76 -222c0 -83 -29 -152 -76 -222z" />
    <glyph glyph-name="parenleftinferior" unicode="&#x208d;" horiz-adv-x="210" 
d="M190 -9l-69 -38c-47 70 -76 139 -76 222c0 82 29 151 76 222l69 -38c-40 -64 -55 -107 -55 -184c0 -78 15 -120 55 -184z" />
    <glyph glyph-name="parenrightinferior" unicode="&#x208e;" horiz-adv-x="210" 
d="M90 -47l-70 38c40 64 55 106 55 184c0 77 -15 120 -55 184l70 38c47 -71 76 -140 76 -222c0 -83 -29 -152 -76 -222z" />
    <glyph glyph-name="oneeighth" unicode="&#x215b;" horiz-adv-x="777" 
d="M587 -5c-88 0 -145 41 -145 103c0 42 19 69 54 86v1c-25 14 -44 36 -44 73c0 53 51 97 135 97c85 0 134 -44 134 -97c0 -37 -19 -59 -44 -73v-1c35 -18 54 -44 54 -86c0 -62 -57 -103 -144 -103zM587 210c24 0 42 16 42 35c0 16 -15 32 -42 32c-28 0 -42 -16 -42 -32
c0 -19 17 -35 42 -35zM587 73c32 0 48 15 48 34c0 22 -18 36 -48 36c-29 0 -49 -14 -49 -36c0 -19 16 -34 49 -34zM117 611l-56 -33l-36 69l100 53h91v-350h-99v261zM87 -38l447 817l79 -43l-447 -817z" />
    <glyph glyph-name="threeeighths" unicode="&#x215c;" horiz-adv-x="796" 
d="M606 -5c-88 0 -145 41 -145 103c0 42 19 69 54 86v1c-25 14 -44 36 -44 73c0 53 51 97 135 97c85 0 134 -44 134 -97c0 -37 -19 -59 -44 -73v-1c35 -18 54 -44 54 -86c0 -62 -57 -103 -144 -103zM606 210c24 0 42 16 42 35c0 16 -15 32 -42 32c-28 0 -42 -16 -42 -32
c0 -19 17 -35 42 -35zM606 73c32 0 48 15 48 34c0 22 -18 36 -48 36c-29 0 -49 -14 -49 -36c0 -19 16 -34 49 -34zM309 450c0 -66 -60 -105 -139 -105c-72 0 -120 34 -135 98l95 21c7 -24 21 -34 40 -34c20 0 37 12 37 31c0 30 -24 34 -46 34h-29v69h26c26 0 42 10 42 29
c0 15 -10 27 -29 27c-16 0 -29 -9 -34 -26l-94 20c17 59 68 91 128 91c71 0 130 -27 130 -95c0 -45 -32 -67 -68 -76c47 -9 76 -43 76 -84zM126 -38l447 817l79 -43l-447 -817z" />
    <glyph glyph-name="fiveeighths" unicode="&#x215d;" horiz-adv-x="796" 
d="M606 -5c-88 0 -145 41 -145 103c0 42 19 69 54 86v1c-25 14 -44 36 -44 73c0 53 51 97 135 97c85 0 134 -44 134 -97c0 -37 -19 -59 -44 -73v-1c35 -18 54 -44 54 -86c0 -62 -57 -103 -144 -103zM606 210c24 0 42 16 42 35c0 16 -15 32 -42 32c-28 0 -42 -16 -42 -32
c0 -19 17 -35 42 -35zM606 73c32 0 48 15 48 34c0 22 -18 36 -48 36c-29 0 -49 -14 -49 -36c0 -19 16 -34 49 -34zM40 440l92 24c8 -20 17 -33 40 -33c30 0 40 25 40 46c0 20 -6 45 -38 45c-22 0 -35 -7 -54 -19l-67 30l8 167h235v-83h-148l-3 -37c14 7 35 10 47 10
c68 0 121 -39 121 -119s-66 -126 -147 -126c-58 0 -108 39 -126 95zM126 -38l447 817l79 -43l-447 -817z" />
    <glyph glyph-name="seveneighths" unicode="&#x215e;" horiz-adv-x="726" 
d="M536 -5c-88 0 -145 41 -145 103c0 42 19 69 54 86v1c-25 14 -44 36 -44 73c0 53 51 97 135 97c85 0 134 -44 134 -97c0 -37 -19 -59 -44 -73v-1c35 -18 54 -44 54 -86c0 -62 -57 -103 -144 -103zM536 210c24 0 42 16 42 35c0 16 -15 32 -42 32c-28 0 -42 -16 -42 -32
c0 -19 17 -35 42 -35zM536 73c32 0 48 15 48 34c0 22 -18 36 -48 36c-29 0 -49 -14 -49 -36c0 -19 16 -34 49 -34zM56 -38l447 817l79 -43l-447 -817zM287 700v-65l-130 -285h-102l122 266h-157v84h267z" />
    <glyph glyph-name="onethird" unicode="&#x2153;" horiz-adv-x="752" 
d="M711 100c0 -66 -60 -105 -139 -105c-72 0 -120 34 -135 98l95 21c7 -24 21 -34 40 -34c20 0 37 12 37 31c0 30 -24 34 -46 34h-29v69h26c26 0 42 10 42 29c0 15 -10 27 -29 27c-16 0 -29 -9 -34 -26l-94 20c17 59 68 91 128 91c71 0 130 -27 130 -95
c0 -45 -32 -67 -68 -76c47 -9 76 -43 76 -84zM117 611l-56 -33l-36 69l100 53h91v-350h-99v261zM87 -38l447 817l79 -43l-447 -817z" />
    <glyph glyph-name="twothirds" unicode="&#x2154;" horiz-adv-x="828" 
d="M40 421l107 94c42 36 53 51 53 75c0 19 -14 30 -31 30c-19 0 -31 -15 -33 -33l-96 9c8 66 54 109 128 109s133 -35 133 -110c0 -44 -19 -69 -76 -118l-44 -39h123v-88h-264v71zM787 100c0 -66 -60 -105 -139 -105c-72 0 -120 34 -135 98l95 21c7 -24 21 -34 40 -34
c20 0 37 12 37 31c0 30 -24 34 -46 34h-29v69h26c26 0 42 10 42 29c0 15 -10 27 -29 27c-16 0 -29 -9 -34 -26l-94 20c17 59 68 91 128 91c71 0 130 -27 130 -95c0 -45 -32 -67 -68 -76c47 -9 76 -43 76 -84zM162 -38l447 817l79 -43l-447 -817z" />
    <glyph glyph-name="onequarter" unicode="&#xbc;" horiz-adv-x="723" 
d="M698 66h-42v-66h-99v66h-155v82l114 202h140v-202h42v-82zM557 148v112l-63 -112h63zM117 611l-56 -33l-36 69l100 53h91v-350h-99v261zM87 -38l447 817l79 -43l-447 -817z" />
    <glyph glyph-name="threequarters" unicode="&#xbe;" horiz-adv-x="763" 
d="M738 66h-42v-66h-99v66h-155v82l114 202h140v-202h42v-82zM597 148v112l-63 -112h63zM309 450c0 -66 -60 -105 -139 -105c-72 0 -120 34 -135 98l95 21c7 -24 21 -34 40 -34c20 0 37 12 37 31c0 30 -24 34 -46 34h-29v69h26c26 0 42 10 42 29c0 15 -10 27 -29 27
c-16 0 -29 -9 -34 -26l-94 20c17 59 68 91 128 91c71 0 130 -27 130 -95c0 -45 -32 -67 -68 -76c47 -9 76 -43 76 -84zM126 -38l447 817l79 -43l-447 -817z" />
    <glyph glyph-name="zero.ostnum" 
d="M450 253c0 81 -49 132 -110 132c-59 0 -107 -50 -107 -132c0 -79 48 -127 107 -127c61 0 110 48 110 127zM607 253c0 -156 -112 -263 -267 -263c-153 0 -265 106 -265 263s111 267 265 267c155 0 267 -109 267 -267z" />
    <glyph glyph-name="one.ostnum" 
d="M116 137h152v226l-122 -49l-47 125l177 71h147v-373h148v-137h-455v137z" />
    <glyph glyph-name="two.ostnum" 
d="M379 124h187v-124h-454v112l188 111c83 49 94 78 94 106c0 36 -27 56 -64 56c-43 0 -68 -41 -75 -72l-150 41c29 95 104 166 226 166c123 0 220 -78 220 -187c0 -79 -36 -137 -146 -195z" />
    <glyph glyph-name="three.ostnum" 
d="M253 125v128h53c48 0 83 23 83 69c0 40 -27 63 -62 63c-30 0 -57 -20 -72 -58l-132 61c46 96 119 132 208 132c115 0 213 -60 213 -178c0 -66 -36 -116 -89 -141c62 -29 102 -76 102 -155c0 -151 -134 -211 -230 -211c-90 0 -165 40 -211 105l119 83
c16 -23 43 -52 88 -52s77 31 77 77c0 42 -24 77 -94 77h-53z" />
    <glyph glyph-name="four.ostnum" 
d="M602 0h-81v-109h-155v109h-292v144l261 366h186v-376h81v-134zM366 134v197l-137 -197h137z" />
    <glyph glyph-name="five.ostnum" 
d="M115 -70l113 81c19 -24 49 -40 80 -40c57 0 105 41 105 106c0 61 -40 95 -99 95c-41 0 -75 -15 -109 -39l-78 49l18 328h383v-131h-245l-5 -84c19 4 39 7 62 7c130 0 230 -71 230 -225c0 -151 -118 -242 -260 -242c-64 0 -147 30 -195 95z" />
    <glyph glyph-name="six.ostnum" 
d="M342 -10c-139 0 -252 90 -252 228c0 98 34 154 78 219l151 223h177l-155 -228l1 -2c12 3 25 6 40 6c127 0 209 -96 209 -218c0 -138 -110 -228 -249 -228zM438 223c0 57 -37 99 -97 99c-58 0 -95 -42 -95 -99c0 -55 37 -96 96 -96s96 41 96 96z" />
    <glyph glyph-name="seven.ostnum" 
d="M591 373l-244 -533h-166l247 537h-343v133h506v-137z" />
    <glyph glyph-name="eight.ostnum" 
d="M340 -10c-145 0 -256 72 -256 194c0 79 38 130 106 162v2c-49 25 -83 65 -83 135c0 99 95 182 233 182c140 0 234 -83 234 -182c0 -70 -34 -110 -83 -135v-2c65 -35 106 -83 106 -162c0 -122 -110 -194 -257 -194zM340 392c55 0 84 28 84 71c0 39 -27 68 -84 68
c-55 0 -83 -29 -83 -68c0 -43 30 -71 83 -71zM340 124c63 0 100 26 100 71c0 48 -43 73 -100 73c-56 0 -99 -25 -99 -73c0 -45 38 -71 99 -71z" />
    <glyph glyph-name="nine.ostnum" 
d="M179 -160l161 239l-1 2c-12 -4 -25 -7 -40 -7c-127 0 -209 96 -209 218c0 139 109 228 249 228c139 0 252 -89 252 -228c0 -97 -34 -153 -78 -219l-157 -233h-177zM243 287c0 -56 37 -99 97 -99c58 0 95 43 95 99c0 55 -37 97 -96 97s-96 -42 -96 -97z" />
    <glyph glyph-name="zero.tnum" 
d="M340 -10c-177 0 -280 155 -280 360c0 203 104 360 280 360s281 -155 281 -360c0 -203 -103 -360 -281 -360zM340 134c83 0 117 88 117 216c0 126 -35 216 -117 216c-81 0 -116 -87 -116 -216c0 -127 34 -216 116 -216z" />
    <glyph glyph-name="one.tnum" 
d="M115 139h151v413l-123 -49l-46 126l177 71h150v-561h147v-139h-456v139z" />
    <glyph glyph-name="two.tnum" 
d="M95 118l208 194c80 75 114 112 114 166c0 52 -31 88 -86 88c-50 0 -75 -30 -83 -73l-152 18c16 132 108 199 240 199c123 0 245 -73 245 -223c0 -108 -65 -170 -177 -270l-89 -78h269v-139h-489v118z" />
    <glyph glyph-name="three.tnum" 
d="M591 200c0 -143 -122 -210 -261 -210c-124 0 -221 62 -250 191l155 30c12 -48 39 -77 102 -77c51 0 90 33 90 79c0 60 -44 80 -110 80h-55v132h49c69 0 102 28 102 72c0 43 -31 69 -79 69c-42 0 -72 -27 -83 -63l-151 30c33 117 117 177 236 177c126 0 238 -54 238 -190
c0 -70 -52 -133 -124 -152c94 -17 141 -86 141 -168z" />
    <glyph glyph-name="four.tnum" 
d="M610 141h-83v-141h-158v141h-309v128l289 431h178v-431h83v-128zM369 269v240l-161 -240h161z" />
    <glyph glyph-name="five.tnum" 
d="M80 150l145 48c17 -42 54 -66 99 -66c59 0 101 45 101 108c0 59 -35 106 -107 106c-43 0 -97 -16 -130 -33l-79 52l16 335h429v-137h-296l-4 -95c26 6 57 9 91 9c137 0 243 -82 243 -243c0 -148 -110 -244 -271 -244c-116 0 -201 55 -237 160z" />
    <glyph glyph-name="six.tnum" 
d="M343 -10c-148 0 -267 95 -267 241c0 103 37 162 84 233l158 236h188l-163 -242l1 -1c10 3 31 5 45 5c133 0 217 -102 217 -231c0 -146 -116 -241 -263 -241zM452 237c0 63 -42 110 -110 110c-66 0 -108 -46 -108 -110c0 -63 41 -107 109 -107c67 0 109 44 109 107z" />
    <glyph glyph-name="seven.tnum" 
d="M596 553l-263 -553h-174l264 557h-343v143h516v-147z" />
    <glyph glyph-name="eight.tnum" 
d="M341 -10c-156 0 -271 83 -271 207c0 84 37 138 110 172v2c-52 27 -89 71 -89 145c0 106 101 194 250 194c148 0 248 -88 248 -194c0 -74 -37 -118 -89 -145v-2c70 -38 110 -88 110 -172c0 -124 -114 -207 -269 -207zM341 413c60 0 99 33 99 81c0 42 -37 77 -99 77
c-63 0 -101 -35 -101 -77c0 -48 40 -81 101 -81zM341 129c75 0 117 30 117 80c0 54 -49 83 -117 83c-69 0 -119 -29 -119 -83c0 -50 43 -80 119 -80z" />
    <glyph glyph-name="nine.tnum" 
d="M176 0l163 242v0l-1 1c-15 -3 -31 -5 -45 -5c-133 0 -217 102 -217 231c0 146 116 241 263 241c148 0 267 -95 267 -241c0 -103 -37 -162 -84 -233l-158 -236h-188zM230 463c0 -63 42 -110 110 -110c66 0 108 46 108 110c0 63 -41 107 -109 107c-67 0 -109 -44 -109 -107
z" />
    <glyph glyph-name="minus" unicode="&#x2212;" horiz-adv-x="648" 
d="M578 233h-518v140h518v-140z" />
    <glyph glyph-name="divide" unicode="&#xf7;" horiz-adv-x="647" 
d="M414 110c0 -51 -39 -91 -91 -91c-51 0 -91 40 -91 91c0 52 40 91 91 91c52 0 91 -39 91 -91zM414 505c0 -51 -39 -91 -91 -91c-51 0 -91 40 -91 91c0 52 40 91 91 91c52 0 91 -39 91 -91zM555 259h-461v99h461v-99z" />
    <glyph glyph-name="multiply" unicode="&#xd7;" horiz-adv-x="648" 
d="M569 447l-144 -144l144 -144l-101 -101l-144 144l-144 -144l-101 101l144 144l-144 144l101 101l144 -144l144 144z" />
    <glyph glyph-name="approxequal" unicode="&#x2248;" horiz-adv-x="648" 
d="M423 454c53 0 91 15 129 47l64 -102c-45 -56 -112 -84 -179 -84c-96 0 -141 41 -230 41c-53 0 -91 -15 -130 -48l-63 103c45 56 111 84 178 84c96 0 162 -41 231 -41zM441 235c54 0 91 14 130 47l63 -103c-45 -55 -111 -84 -178 -84c-96 0 -141 42 -231 42
c-53 0 -91 -15 -129 -48l-64 103c45 56 112 84 179 84c96 0 161 -41 230 -41z" />
    <glyph glyph-name="dollar.ostnum" 
d="M302 -95v92c-65 2 -143 19 -204 59l76 96c35 -25 94 -41 128 -46v86c-90 29 -186 66 -186 161s84 151 186 159v68h54v-68c64 -4 128 -20 170 -52l-77 -94c-22 15 -67 29 -93 35v-102c8 -2 20 -6 27 -9c86 -27 161 -57 161 -144c0 -100 -98 -137 -188 -147v-94h-54z
M416 139c0 20 -36 31 -60 38v-72c26 4 60 17 60 34zM252 361c0 -22 22 -35 50 -45v85c-36 -4 -50 -19 -50 -40z" />
    <glyph glyph-name="Euro.ostnum" 
d="M55 350h85c36 103 129 171 250 171c95 0 156 -34 203 -88l-98 -93c-30 32 -61 49 -102 49c-69 0 -116 -52 -116 -134c0 -85 49 -134 119 -134c44 0 73 18 105 52l97 -90c-49 -54 -109 -93 -210 -93c-119 0 -214 67 -249 172h-84v59h72c-1 11 -2 22 -2 34s0 24 2 36h-72
v59z" />
    <glyph glyph-name="sterling.ostnum" 
d="M562 449l-82 -103c-25 27 -53 39 -85 39c-35 0 -64 -24 -64 -78v-25h153v-93h-153v-64h224v-125h-465v125h86v64h-86v93h86v32c0 123 64 206 198 206c83 0 137 -19 188 -71z" />
    <glyph glyph-name="dollar.onum" horiz-adv-x="468" 
d="M206 -95v92c-65 2 -123 19 -183 59l75 96c35 -25 74 -41 108 -46v86c-80 29 -166 66 -166 161s75 151 166 159v68h54v-68c64 -4 108 -20 149 -52l-76 -94c-22 15 -48 28 -73 35v-106c10 -4 20 -7 28 -9c85 -31 140 -63 140 -140c0 -90 -78 -137 -168 -147v-94h-54z
M299 139c0 20 -14 29 -39 36v-67c21 4 39 14 39 31zM177 358c0 -17 13 -30 29 -40v83c-19 -7 -29 -23 -29 -43z" />
    <glyph glyph-name="Euro.onum" horiz-adv-x="592" 
d="M25 350h85c36 103 129 171 249 171c95 0 157 -34 204 -88l-99 -93c-29 32 -60 49 -102 49c-68 0 -116 -52 -116 -134c0 -85 50 -134 120 -134c44 0 73 18 104 52l98 -90c-49 -54 -109 -93 -211 -93c-119 0 -213 67 -248 172h-84v59h72c-1 11 -2 22 -2 34s0 24 2 36h-72
v59z" />
    <glyph glyph-name="sterling.onum" horiz-adv-x="531" 
d="M511 449l-81 -103c-25 27 -54 39 -85 39c-35 0 -65 -24 -65 -78v-25h138v-93h-138v-64h204v-125h-434v125h75v64h-75v93h75v32c0 123 64 206 198 206c84 0 137 -19 188 -71z" />
    <glyph glyph-name="dollar.tnum" 
d="M373 773v-74c82 -3 158 -30 209 -75l-88 -114c-29 24 -77 45 -121 49v-136c8 -2 17 -5 26 -8c82 -25 201 -72 201 -195c0 -146 -111 -209 -227 -219v-91h-54v90c-87 4 -186 29 -248 87l108 119c29 -32 90 -54 140 -59v143c-90 29 -220 77 -220 202c0 139 97 198 220 207
v74h54zM442 206c0 37 -30 54 -69 67v-125c40 5 69 22 69 58zM260 497c0 -27 25 -43 59 -56v116c-31 -6 -59 -22 -59 -60z" />
    <glyph glyph-name="Euro.tnum" 
d="M33 443h82c28 167 136 267 290 267c113 0 182 -46 232 -120l-121 -87c-27 48 -65 67 -113 67c-61 0 -104 -46 -123 -127h218v-59h-225c-1 -11 -1 -22 -1 -34c0 -13 0 -25 1 -36h225v-59h-217c20 -80 64 -126 125 -126c54 0 88 28 114 70l115 -83
c-55 -89 -127 -126 -229 -126c-155 0 -263 96 -291 265h-82v59h76c-1 12 -1 23 -1 36c0 11 0 23 1 34h-76v59z" />
    <glyph glyph-name="sterling.tnum" 
d="M603 629l-93 -97c-27 30 -49 44 -96 44c-37 0 -77 -33 -77 -93v-68h144v-103h-144v-197h247v-115h-493v115h94v197h-94v103h94v70c0 134 75 225 221 225c92 0 145 -31 197 -81z" />
    <glyph glyph-name="infinity" unicode="&#x221e;" horiz-adv-x="824" 
d="M228 511c70 0 134 -45 180 -114c50 68 117 114 187 114c105 0 189 -57 189 -189c0 -131 -86 -191 -190 -191c-68 0 -137 43 -186 109c-45 -67 -111 -110 -178 -110c-104 0 -190 61 -190 192c0 132 84 189 188 189zM662 322c0 56 -27 90 -73 90c-53 0 -94 -50 -124 -93
c25 -37 67 -89 120 -89c45 0 77 33 77 92zM350 319c-22 31 -65 92 -118 92c-44 0 -69 -34 -69 -89c0 -57 29 -91 72 -91c49 0 88 49 115 88z" />
    <glyph glyph-name="notequal" unicode="&#x2260;" horiz-adv-x="680" 
d="M60 337v134h326l77 115l96 -66l-33 -49h94v-134h-184l-47 -70h231v-134h-320l-86 -129l-96 66l42 63h-100v134h189l47 70h-236z" />
    <glyph glyph-name="partialdiff" unicode="&#x2202;" horiz-adv-x="615" 
d="M197 700h150l128 -186c58 -84 109 -166 109 -264c0 -138 -103 -260 -273 -260s-271 121 -271 260c0 146 109 237 230 237c48 0 70 -8 84 -13zM313 120c82 0 121 66 121 130c0 53 -33 127 -115 127c-96 0 -129 -65 -129 -127c0 -65 43 -130 123 -130z" />
    <glyph glyph-name="summation" unicode="&#x2211;" horiz-adv-x="614" 
d="M248 299l-198 280v121h514v-141h-307l183 -260l-183 -261h307v-141h-514v121z" />
    <glyph glyph-name="product" unicode="&#x220f;" horiz-adv-x="692" 
d="M613 -103h-159v657h-216v-657h-158v803h533v-803z" />
    <glyph glyph-name="integral" unicode="&#x222b;" horiz-adv-x="359" 
d="M251 530v-524c0 -102 -62 -145 -148 -145h-68v133h37c25 0 36 10 36 35v527c0 101 61 144 147 144h69v-132h-38c-24 0 -35 -12 -35 -38z" />
    <glyph glyph-name="radical" unicode="&#x221a;" horiz-adv-x="627" 
d="M211 510l114 -338l168 528h119l-232 -700h-111l-142 406h-88v104h172z" />
    <glyph glyph-name="lozenge" unicode="&#x25ca;" horiz-adv-x="592" 
d="M551 346l-255 -365l-255 365l255 365zM425 346l-129 188l-130 -188l130 -189z" />
    <glyph glyph-name="lessequal" unicode="&#x2264;" horiz-adv-x="612" 
d="M532 113l-452 180v70l452 181v-73l-362 -143l362 -144v-71zM532 0h-452v72h452v-72z" />
    <glyph glyph-name="greaterequal" unicode="&#x2265;" horiz-adv-x="612" 
d="M532 293l-452 -180v71l362 144l-362 143v73l452 -181v-70zM532 0h-452v72h452v-72z" />
    <glyph glyph-name="logicalnot" unicode="&#xac;" horiz-adv-x="649" 
d="M472 142v195h-422v128h550v-323h-128z" />
    <glyph glyph-name="uni021B" unicode="&#x21b;" horiz-adv-x="444" 
d="M222 -37c50 0 91 -38 91 -88c0 -13 0 -32 -16 -57l-108 -169h-61l45 145c-26 17 -42 45 -42 78c0 52 40 91 91 91zM271 -10c-83 0 -157 36 -157 175v215h-94v130h94v127h152v-127h127v-130h-127v-195c0 -53 28 -63 51 -63c17 0 43 2 76 9v-124c-46 -16 -90 -17 -122 -17z
" />
    <glyph glyph-name="idotaccent" horiz-adv-x="295" 
d="M71 0v510h152v-510h-152zM233 663c0 -48 -39 -87 -88 -87c-48 0 -87 39 -87 87c0 49 39 88 87 88c49 0 88 -39 88 -88z" />
    <glyph glyph-name="afii00208" unicode="&#x2015;" horiz-adv-x="1000" 
d="M951 232h-901v142h901v-142z" />
    <glyph glyph-name="estimated" unicode="&#x212e;" horiz-adv-x="726" 
d="M363 -6c-180 0 -325 145 -325 325c0 179 145 325 325 325c179 0 325 -146 325 -325v-9h-527c-2 0 -4 -1 -4 -4v-184c0 -8 2 -15 7 -20c50 -59 121 -89 200 -89c83 0 160 42 212 107h44c-59 -76 -153 -126 -257 -126zM161 328h403c3 0 5 2 5 5v185c0 8 -4 15 -9 21
c-50 57 -120 85 -196 85c-78 0 -149 -29 -199 -87c-6 -6 -8 -13 -8 -22v-182c0 -3 2 -5 4 -5z" />
    <glyph glyph-name="litre" unicode="&#x2113;" horiz-adv-x="449" 
d="M324 161h90c-3 -94 -57 -169 -150 -169s-164 53 -164 170v95l-35 -19l-30 61c9 5 53 28 65 35v199c0 119 64 175 160 175c95 0 152 -58 152 -151s-76 -156 -160 -221v-177c0 -34 12 -49 35 -49c21 0 35 16 37 51zM320 550c0 35 -16 50 -35 50c-21 0 -33 -22 -33 -73v-97
c42 40 68 68 68 120z" />
    <glyph glyph-name="longs" unicode="&#x17f;" horiz-adv-x="395" 
d="M93 0v383h-63v127h63v60c0 106 64 190 176 190c49 0 88 -8 116 -20l-15 -126c-19 8 -45 14 -64 14c-39 0 -62 -21 -62 -71v-557h-151z" />
    <glyph glyph-name="afii61352" unicode="&#x2116;" horiz-adv-x="1208" 
d="M1136 0h-335v63h335v-63zM100 0v700h73l448 -564h3v564h74v-700h-63l-457 574h-2v-574h-76zM964 138c-104 0 -188 75 -188 179s84 178 188 178c105 0 189 -74 189 -178s-84 -179 -189 -179zM964 202c68 0 116 48 116 115s-50 114 -116 114c-67 0 -115 -47 -115 -114
s50 -115 115 -115z" />
    <glyph glyph-name="uni2215" unicode="&#x2215;" horiz-adv-x="204" 
d="M-161 -38l447 817l79 -43l-447 -817z" />
    <glyph glyph-name="uni2219" unicode="&#x2219;" horiz-adv-x="291" 
d="M236 316c0 -51 -39 -90 -90 -90c-52 0 -91 39 -91 90c0 52 39 91 91 91c51 0 90 -39 90 -91z" />
    <glyph glyph-name="onedotenleader" unicode="&#x2024;" horiz-adv-x="291" 
d="M236 86c0 -52 -39 -91 -90 -91c-52 0 -91 39 -91 91c0 51 39 91 91 91c51 0 90 -40 90 -91z" />
    <glyph glyph-name="twodotenleader" unicode="&#x2025;" horiz-adv-x="582" 
d="M236 86c0 -52 -39 -91 -90 -91c-52 0 -91 39 -91 91c0 51 39 91 91 91c51 0 90 -40 90 -91zM537 86c0 -52 -39 -91 -90 -91c-52 0 -91 39 -91 91c0 51 39 91 91 91c51 0 90 -40 90 -91z" />
    <glyph glyph-name="colonmonetary" unicode="&#x20a1;" horiz-adv-x="615" 
d="M442 758l-26 -68c17 -6 32 -14 47 -23l34 91h63l-50 -130c40 -37 66 -88 75 -146h-163c-11 67 -63 83 -99 83c-63 0 -113 -38 -113 -159v-112c0 -121 51 -158 113 -158c37 0 83 8 100 76h163c-29 -145 -136 -220 -265 -220c-16 0 -32 2 -47 3l-17 -45h-63l22 58
c-17 6 -32 14 -47 23l-30 -81h-63l45 121c-46 50 -71 122 -71 214v130c0 193 112 293 271 293c13 0 25 -1 37 -3l21 53h63z" />
    <glyph glyph-name="florin.tnum" 
d="M90 360h139l53 160c39 121 85 190 197 190c48 0 87 -8 113 -20l-23 -124c-18 8 -42 12 -61 12c-39 0 -59 -23 -75 -71l-49 -147h144v-121h-184l-142 -429h-152l140 429h-100v121z" />
    <glyph glyph-name="yen.tnum" 
d="M76 392h122l-177 308h190l131 -247h2l131 247h185l-178 -308h123v-59h-157l-28 -49v-39h185v-59h-185v-186h-158v186h-186v59h186v39l-30 49h-156v59z" />
    <glyph glyph-name="cent.tnum" 
d="M345 -114v114c-136 8 -233 110 -233 255c0 142 96 246 233 254v99h53v-100c73 -7 122 -39 161 -82l-94 -90c-21 23 -42 37 -67 43v-249c27 6 50 21 72 47l94 -88c-41 -45 -90 -80 -166 -88v-115h-53zM258 255c0 -71 35 -115 87 -125v251c-52 -10 -87 -57 -87 -126z" />
    <glyph glyph-name="space.tnum" horiz-adv-x="340" 
 />
    <glyph glyph-name="comma.tnum" horiz-adv-x="340" 
d="M160 177c50 0 91 -39 91 -88c0 -13 0 -32 -16 -58l-108 -169h-61l45 146c-26 16 -42 44 -42 78c0 51 40 91 91 91z" />
    <glyph glyph-name="semicolon.tnum" horiz-adv-x="340" 
d="M251 429c0 -51 -39 -90 -91 -90c-51 0 -91 39 -91 90c0 52 40 91 91 91c52 0 91 -39 91 -91zM66 -138l45 146c-26 16 -42 44 -42 78c0 51 40 91 91 91c50 0 91 -39 91 -88c0 -13 0 -32 -16 -58l-108 -169h-61z" />
    <glyph glyph-name="colon.tnum" horiz-adv-x="340" 
d="M251 86c0 -52 -39 -91 -91 -91c-51 0 -91 39 -91 91c0 51 40 91 91 91c52 0 91 -40 91 -91zM251 429c0 -51 -39 -90 -91 -90c-51 0 -91 39 -91 90c0 52 40 91 91 91c52 0 91 -39 91 -91z" />
    <glyph glyph-name="period.tnum" horiz-adv-x="340" 
d="M251 86c0 -52 -39 -91 -91 -91c-51 0 -91 39 -91 91c0 51 40 91 91 91c52 0 91 -40 91 -91z" />
    <glyph glyph-name="parenleft.tnum" horiz-adv-x="340" 
d="M311 -103l-121 -56c-94 141 -151 279 -151 444s57 303 151 444l121 -56c-80 -129 -130 -233 -130 -388s50 -259 130 -388z" />
    <glyph glyph-name="parenright.tnum" horiz-adv-x="340" 
d="M150 -159l-120 56c80 129 130 233 130 388s-50 259 -130 388l120 56c94 -141 151 -279 151 -444s-57 -303 -151 -444z" />
    <glyph glyph-name="bracketleft.tnum" horiz-adv-x="340" 
d="M59 -160v890h247v-120h-99v-650h99v-120h-247z" />
    <glyph glyph-name="bracketright.tnum" horiz-adv-x="340" 
d="M281 730v-890h-246v120h98v650h-98v120h246z" />
    <glyph glyph-name="braceleft.tnum" horiz-adv-x="340" 
d="M306 -160h-64c-72 0 -129 42 -129 146v152c0 62 -65 88 -88 88v116c23 0 88 26 88 88v154c0 105 55 146 129 146h64v-115h-7c-61 0 -65 -36 -65 -64v-163c0 -94 -57 -98 -100 -103v-2c43 -3 100 -9 100 -102v-162c0 -28 4 -64 65 -64h7v-115z" />
    <glyph glyph-name="braceright.tnum" horiz-adv-x="340" 
d="M98 -160h-63v115h6c62 0 66 36 66 64v162c0 93 56 99 100 102v2c-44 5 -100 9 -100 103v163c0 28 -4 64 -66 64h-6v115h63c75 0 130 -41 130 -146v-154c0 -62 64 -88 88 -88v-116c-24 0 -88 -26 -88 -88v-152c0 -104 -57 -146 -130 -146z" />
    <glyph glyph-name="section.tnum" 
d="M327 -138c-73 0 -133 25 -201 73l75 91c45 -36 83 -50 124 -50c49 0 77 22 77 49c0 32 -51 57 -107 81c-64 27 -151 67 -151 171c0 56 30 100 85 132c-40 25 -81 71 -81 127c0 118 92 174 199 174c86 0 143 -24 194 -70l-78 -100c-33 35 -71 51 -107 51
c-33 0 -59 -21 -59 -56c0 -46 86 -72 121 -89c67 -32 138 -66 138 -153c0 -61 -45 -115 -94 -135c45 -16 89 -73 89 -124c0 -128 -110 -172 -224 -172zM267 290c0 -24 11 -42 27 -54c16 -8 40 -17 61 -17c41 0 78 25 78 63c0 24 -11 43 -28 54c-16 10 -40 16 -60 16
c-42 0 -78 -23 -78 -62z" />
    <glyph glyph-name="numbersign.tnum" 
d="M341 0l26 190h-96l-26 -190h-106l26 190h-84v101h98l16 118h-83v101h97l26 190h106l-26 -190h96l26 190h106l-26 -190h83v-101h-97l-16 -118h83v-101h-97l-26 -190h-106zM301 409l-16 -118h96l16 118h-96z" />
    <glyph glyph-name="percent.tnum" 
d="M68 0l438 700h106l-437 -700h-107zM159 399c-76 0 -132 56 -132 153c0 94 57 153 132 153s133 -58 133 -153c0 -96 -57 -153 -133 -153zM159 473c26 0 48 24 48 79c0 54 -22 78 -48 78c-25 0 -47 -23 -47 -78c0 -54 21 -79 47 -79zM521 -6c-76 0 -132 57 -132 153
c0 95 57 153 132 153s133 -57 133 -153c0 -95 -57 -153 -133 -153zM521 69c26 0 48 23 48 78c0 54 -22 79 -48 79c-25 0 -47 -24 -47 -79c0 -54 21 -78 47 -78z" />
    <glyph glyph-name="perthousand.tnum" 
d="M1 0l364 700h71l-365 -700h-70zM551 -6c-64 0 -112 48 -112 130c0 80 48 129 112 129c63 0 112 -48 112 -129s-48 -130 -112 -130zM551 57c22 0 41 20 41 67c0 45 -19 66 -41 66s-41 -20 -41 -66s18 -67 41 -67zM305 -6c-64 0 -112 48 -112 130c0 80 48 129 112 129
c63 0 113 -48 113 -129s-49 -130 -113 -130zM305 57c22 0 41 20 41 67c0 45 -19 66 -41 66s-40 -20 -40 -66s17 -67 40 -67zM133 446c-64 0 -112 47 -112 129c0 80 48 130 112 130c63 0 112 -49 112 -130s-48 -129 -112 -129zM133 509c22 0 41 20 41 66s-19 67 -41 67
s-41 -20 -41 -67c0 -45 18 -66 41 -66z" />
    <glyph glyph-name="plus.tnum" 
d="M615 233h-203v-204h-143v204h-203v140h203v204h143v-204h203v-140z" />
    <glyph glyph-name="minus.tnum" 
d="M600 233h-519v140h519v-140z" />
    <glyph glyph-name="divide.tnum" 
d="M430 110c0 -51 -39 -91 -91 -91c-51 0 -90 40 -90 91c0 52 39 91 90 91c52 0 91 -39 91 -91zM430 505c0 -51 -39 -91 -91 -91c-51 0 -90 40 -90 91c0 52 39 91 90 91c52 0 91 -39 91 -91zM592 259h-503v99h503v-99z" />
    <glyph glyph-name="multiply.tnum" 
d="M586 447l-144 -144l144 -144l-101 -101l-145 144l-144 -144l-101 101l144 144l-144 144l101 101l144 -144l145 144z" />
    <glyph glyph-name="equal.tnum" 
d="M76 337v135h529v-135h-529zM76 132v135h529v-135h-529z" />
    <glyph glyph-name="less.tnum" 
d="M620 16l-560 212v140l560 212v-143l-382 -138l382 -138v-145z" />
    <glyph glyph-name="greater.tnum" 
d="M621 228l-560 -212v145l382 138l-382 138v143l560 -212v-140z" />
    <glyph glyph-name="degree.tnum" horiz-adv-x="340" 
d="M317 564c0 -81 -65 -147 -147 -147c-81 0 -146 66 -146 147s65 146 146 146c82 0 147 -65 147 -146zM240 564c0 41 -29 73 -70 73s-70 -32 -70 -73s29 -73 70 -73s70 32 70 73z" />
    <glyph glyph-name="florin.onum" horiz-adv-x="424" 
d="M13 289h85l6 41c18 125 77 189 189 189c48 0 81 -7 107 -19l-17 -122c-19 7 -42 12 -61 12c-39 0 -65 -22 -71 -71l-5 -30h107v-122h-125l-46 -328h-148l47 328h-68v122z" />
    <glyph glyph-name="yen.onum" horiz-adv-x="550" 
d="M403 291h103v-59h-135l-18 -35v-18h153v-59h-153v-120h-155v120h-154v59h154v18l-19 35h-135v59h103l-118 219h165l83 -166h1l84 166h159z" />
    <glyph glyph-name="cent.onum" horiz-adv-x="526" 
d="M283 -114v114c-136 8 -233 110 -233 255c0 142 96 246 233 254v99h53v-100c73 -7 122 -39 161 -82l-94 -90c-21 23 -42 37 -67 43v-249c27 6 50 21 73 47l93 -88c-41 -45 -90 -80 -166 -88v-115h-53zM196 255c0 -71 35 -115 87 -125v251c-52 -10 -87 -57 -87 -126z" />
    <glyph glyph-name="space.onum" horiz-adv-x="290" 
 />
    <glyph glyph-name="comma.onum" horiz-adv-x="291" 
d="M52 -138l44 146c-25 16 -41 44 -41 78c0 51 39 91 90 91s91 -39 91 -88c0 -13 0 -32 -16 -58l-108 -169h-60z" />
    <glyph glyph-name="semicolon.onum" horiz-adv-x="291" 
d="M236 430c0 -52 -39 -91 -90 -91c-52 0 -91 39 -91 91c0 51 39 91 91 91c51 0 90 -40 90 -91zM52 -138l44 146c-25 16 -41 44 -41 78c0 51 39 91 91 91c50 0 90 -39 90 -88c0 -13 0 -32 -16 -58l-108 -169h-60z" />
    <glyph glyph-name="colon.onum" horiz-adv-x="291" 
d="M236 86c0 -52 -39 -91 -90 -91c-52 0 -91 39 -91 91c0 51 39 91 91 91c51 0 90 -40 90 -91zM236 430c0 -52 -39 -91 -90 -91c-52 0 -91 39 -91 91c0 51 39 91 91 91c51 0 90 -40 90 -91z" />
    <glyph glyph-name="period.onum" horiz-adv-x="291" 
d="M236 86c0 -52 -39 -91 -90 -91c-52 0 -91 39 -91 91c0 51 39 91 91 91c51 0 90 -40 90 -91z" />
    <glyph glyph-name="parenleft.onum" horiz-adv-x="371" 
d="M331 -133l-120 -56c-94 141 -151 279 -151 444s57 303 151 444l120 -56c-80 -129 -130 -233 -130 -388s50 -259 130 -388z" />
    <glyph glyph-name="parenright.onum" horiz-adv-x="371" 
d="M160 -189l-120 56c79 129 129 233 129 388s-50 259 -129 388l120 56c94 -141 151 -279 151 -444s-57 -303 -151 -444z" />
    <glyph glyph-name="bracketleft.onum" horiz-adv-x="374" 
d="M80 -190v890h254v-120h-107v-650h107v-120h-254z" />
    <glyph glyph-name="bracketright.onum" horiz-adv-x="374" 
d="M294 700v-890h-254v120h107v650h-107v120h254z" />
    <glyph glyph-name="braceleft.onum" horiz-adv-x="413" 
d="M374 -190h-86c-73 0 -130 42 -130 146v173c0 61 -85 67 -108 67v116c23 0 108 6 108 68v174c0 105 55 146 130 146h86v-115h-29c-62 0 -65 -36 -65 -64v-163c0 -94 -57 -98 -101 -103v-2c44 -3 101 -9 101 -102v-162c0 -28 3 -64 65 -64h29v-115z" />
    <glyph glyph-name="braceright.onum" horiz-adv-x="413" 
d="M125 -190h-85v115h28c62 0 65 36 65 64v162c0 93 57 99 101 102v2c-44 5 -101 9 -101 103v163c0 28 -3 64 -65 64h-28v115h85c75 0 130 -41 130 -146v-174c0 -62 85 -68 108 -68v-116c-23 0 -108 -6 -108 -67v-173c0 -104 -57 -146 -130 -146z" />
    <glyph glyph-name="section.onum" horiz-adv-x="549" 
d="M261 -168c-74 0 -134 25 -202 73l75 91c45 -36 83 -50 125 -50c48 0 76 22 76 49c0 32 -51 57 -107 81c-63 27 -151 67 -151 171c0 56 30 100 85 132c-40 25 -80 71 -80 127c0 118 91 174 198 174c86 0 143 -24 194 -70l-78 -100c-32 35 -71 51 -107 51
c-33 0 -59 -21 -59 -56c0 -46 86 -72 121 -89c67 -32 138 -66 138 -153c0 -61 -45 -115 -93 -135c44 -17 88 -73 88 -124c0 -128 -110 -172 -223 -172zM200 260c0 -24 11 -42 28 -54c15 -9 39 -17 60 -17c41 0 78 25 78 63c0 24 -11 43 -28 54c-16 9 -39 16 -60 16
c-41 0 -78 -23 -78 -62z" />
    <glyph glyph-name="numbersign.onum" horiz-adv-x="568" 
d="M291 0l17 104h-97l-17 -104h-106l17 104h-76v101h92l16 99h-83v101h100l17 105h106l-17 -105h97l17 105h106l-17 -105h76v-101h-93l-16 -99h85v-101h-101l-17 -104h-106zM243 304l-16 -99h97l16 99h-97z" />
    <glyph glyph-name="percent.onum" horiz-adv-x="598" 
d="M81 0l353 510h86l-354 -510h-85zM142 254c-68 0 -118 49 -118 131c0 81 51 131 118 131c66 0 118 -49 118 -131c0 -81 -51 -131 -118 -131zM142 325c21 0 37 18 37 60c0 41 -16 60 -37 60s-37 -18 -37 -60c0 -41 16 -60 37 -60zM456 -6c-68 0 -118 49 -118 131
c0 81 51 130 118 130s118 -48 118 -130c0 -81 -51 -131 -118 -131zM456 65c21 0 37 18 37 60c0 41 -16 60 -37 60c-20 0 -36 -18 -36 -60c0 -41 15 -60 36 -60z" />
    <glyph glyph-name="perthousand.onum" horiz-adv-x="868" 
d="M81 0l353 510h86l-354 -510h-85zM142 254c-68 0 -118 49 -118 131c0 81 51 131 118 131c66 0 118 -49 118 -131c0 -81 -51 -131 -118 -131zM142 325c21 0 37 18 37 60c0 41 -16 60 -37 60s-37 -18 -37 -60c0 -41 16 -60 37 -60zM456 -6c-68 0 -118 49 -118 131
c0 81 51 130 118 130s118 -48 118 -130c0 -81 -51 -131 -118 -131zM456 65c21 0 37 18 37 60c0 41 -16 60 -37 60c-20 0 -36 -18 -36 -60c0 -41 15 -60 36 -60zM726 -6c-68 0 -118 49 -118 131c0 81 51 130 118 130s118 -48 118 -130c0 -81 -51 -131 -118 -131zM726 65
c20 0 37 18 37 60c0 41 -17 60 -37 60s-37 -18 -37 -60c0 -41 16 -60 37 -60z" />
    <glyph glyph-name="plus.onum" horiz-adv-x="547" 
d="M508 185h-165v-167h-139v167h-164v136h164v167h139v-167h165v-136z" />
    <glyph glyph-name="minus.onum" horiz-adv-x="538" 
d="M498 185h-458v136h458v-136z" />
    <glyph glyph-name="divide.onum" horiz-adv-x="540" 
d="M360 66c0 -52 -40 -91 -91 -91s-91 39 -91 91c0 51 40 90 91 90s91 -39 91 -90zM360 429c0 -51 -40 -91 -91 -91s-91 40 -91 91c0 52 40 91 91 91s91 -39 91 -91zM501 199h-461v98h461v-98z" />
    <glyph glyph-name="multiply.onum" horiz-adv-x="498" 
d="M463 370l-115 -117l115 -116l-98 -99l-116 116l-117 -116l-98 99l116 116l-116 117l98 98l117 -116l116 116z" />
    <glyph glyph-name="equal.onum" horiz-adv-x="557" 
d="M40 299v132h477v-132h-477zM40 94v132h477v-132h-477z" />
    <glyph glyph-name="less.onum" horiz-adv-x="572" 
d="M532 9l-492 187v122l492 187v-137l-325 -111l325 -111v-137z" />
    <glyph glyph-name="greater.onum" horiz-adv-x="572" 
d="M532 196l-492 -187v137l325 111l-325 111v137l492 -187v-122z" />
    <glyph glyph-name="degree.onum" horiz-adv-x="378" 
d="M328 358c0 -84 -67 -151 -152 -151c-84 0 -151 67 -151 151c0 85 67 152 151 152c85 0 152 -67 152 -152zM234 358c0 33 -25 58 -58 58s-57 -25 -57 -58s24 -57 57 -57s58 24 58 57z" />
    <glyph glyph-name="florin.ostnum" 
d="M115 289h126l13 40c42 120 98 190 210 190c48 0 81 -7 107 -19l-17 -119c-23 6 -42 9 -61 9c-39 0 -71 -12 -92 -72l-11 -29h154v-122h-196l-115 -328h-148l113 328h-83v122z" />
    <glyph glyph-name="yen.ostnum" 
d="M468 291h103v-59h-135l-19 -35v-18h154v-59h-154v-120h-154v120h-154v59h154v18l-19 35h-135v59h103l-118 219h165l83 -166v0l85 166h159z" />
    <glyph glyph-name="cent.ostnum" 
d="M357 -114v114c-136 8 -233 110 -233 255c0 142 96 246 233 254v99h53v-100c73 -7 121 -39 160 -82l-94 -90c-20 23 -41 37 -66 43v-249c27 6 50 21 72 47l93 -88c-40 -45 -89 -80 -165 -88v-115h-53zM269 255c0 -71 36 -115 88 -125v251c-52 -10 -88 -57 -88 -126z" />
    <glyph glyph-name="space.ostnum" horiz-adv-x="340" 
 />
    <glyph glyph-name="comma.ostnum" horiz-adv-x="340" 
d="M160 177c50 0 91 -39 91 -88c0 -13 0 -32 -16 -58l-108 -169h-61l45 146c-26 16 -42 44 -42 78c0 51 39 91 91 91z" />
    <glyph glyph-name="semicolon.ostnum" horiz-adv-x="340" 
d="M251 430c0 -52 -39 -91 -91 -91c-51 0 -91 39 -91 91c0 51 40 91 91 91c52 0 91 -40 91 -91zM66 -138l45 146c-26 16 -42 44 -42 78c0 51 40 91 91 91c50 0 91 -39 91 -88c0 -13 0 -32 -16 -58l-108 -169h-61z" />
    <glyph glyph-name="colon.ostnum" horiz-adv-x="340" 
d="M251 86c0 -52 -39 -91 -91 -91c-51 0 -91 39 -91 91c0 51 40 91 91 91c52 0 91 -40 91 -91zM251 430c0 -52 -39 -91 -91 -91c-51 0 -91 39 -91 91c0 51 40 91 91 91c52 0 91 -40 91 -91z" />
    <glyph glyph-name="period.ostnum" horiz-adv-x="340" 
d="M251 86c0 -52 -39 -91 -91 -91c-51 0 -91 39 -91 91c0 51 40 91 91 91c52 0 91 -40 91 -91z" />
    <glyph glyph-name="parenleft.ostnum" horiz-adv-x="340" 
d="M321 -133l-120 -56c-94 141 -151 279 -151 444s57 303 151 444l120 -56c-80 -129 -130 -233 -130 -388s50 -259 130 -388z" />
    <glyph glyph-name="parenright.ostnum" horiz-adv-x="340" 
d="M140 -189l-121 56c80 129 130 233 130 388s-50 259 -130 388l121 56c94 -141 151 -279 151 -444s-57 -303 -151 -444z" />
    <glyph glyph-name="bracketleft.ostnum" horiz-adv-x="340" 
d="M60 -190v890h234v-120h-87v-650h87v-120h-234z" />
    <glyph glyph-name="bracketright.ostnum" horiz-adv-x="340" 
d="M281 700v-890h-234v120h86v650h-86v120h234z" />
    <glyph glyph-name="braceleft.ostnum" horiz-adv-x="340" 
d="M323 -190h-75c-73 0 -130 42 -130 146v173c0 61 -85 67 -109 67v116c24 0 109 6 109 68v174c0 105 55 146 130 146h75v-115h-19c-61 0 -65 -36 -65 -64v-163c0 -94 -57 -98 -100 -103v-2c43 -3 100 -9 100 -102v-162c0 -28 4 -64 65 -64h19v-115z" />
    <glyph glyph-name="braceright.ostnum" horiz-adv-x="340" 
d="M93 -190h-75v115h18c62 0 65 36 65 64v162c0 93 57 99 101 102v2c-44 5 -101 9 -101 103v163c0 28 -3 64 -65 64h-18v115h75c75 0 130 -41 130 -146v-174c0 -62 85 -68 108 -68v-116c-23 0 -108 -6 -108 -67v-173c0 -104 -57 -146 -130 -146z" />
    <glyph glyph-name="section.ostnum" 
d="M327 -168c-73 0 -133 25 -201 73l75 91c45 -36 83 -50 124 -50c49 0 77 22 77 49c0 32 -51 57 -107 81c-64 27 -151 67 -151 171c0 56 30 100 85 132c-40 25 -81 71 -81 127c0 118 92 174 199 174c86 0 143 -24 194 -70l-78 -100c-33 35 -71 51 -107 51
c-33 0 -59 -21 -59 -56c0 -46 86 -72 121 -89c67 -32 138 -66 138 -153c0 -61 -45 -115 -94 -135c45 -17 89 -73 89 -124c0 -128 -110 -172 -224 -172zM267 260c0 -24 11 -42 27 -54c16 -9 40 -17 61 -17c41 0 78 25 78 63c0 24 -11 43 -28 54c-16 9 -40 16 -60 16
c-42 0 -78 -23 -78 -62z" />
    <glyph glyph-name="numbersign.ostnum" 
d="M347 0l17 104h-96l-17 -104h-106l17 104h-76v101h92l16 99h-83v101h100l17 105h106l-17 -105h96l17 105h106l-17 -105h76v-101h-93l-16 -99h85v-101h-101l-17 -104h-106zM300 304l-16 -99h96l16 99h-96z" />
    <glyph glyph-name="percent.ostnum" 
d="M525 0c-59 0 -103 45 -103 120c0 73 44 119 103 119c57 0 102 -45 102 -119c0 -75 -44 -120 -102 -120zM525 58c19 0 37 19 37 62c0 41 -18 61 -37 61c-20 0 -38 -19 -38 -61s17 -62 38 -62zM157 278c-58 0 -102 44 -102 119c0 74 44 119 102 119s103 -44 103 -119
s-44 -119 -103 -119zM96 0l415 510h74l-416 -510h-73zM157 336c20 0 38 18 38 61c0 41 -18 61 -38 61c-19 0 -37 -19 -37 -61s17 -61 37 -61z" />
    <glyph glyph-name="perthousand.ostnum" 
d="M16 0l357 510h66l-358 -510h-65zM336 0c-60 0 -104 45 -104 120s44 120 104 120c58 0 103 -44 103 -120c0 -75 -44 -120 -103 -120zM336 59c19 0 37 18 37 61c0 42 -18 62 -37 62c-20 0 -38 -19 -38 -62c0 -42 17 -61 38 -61zM566 0c-59 0 -103 45 -103 120
s44 120 103 120c58 0 103 -44 103 -120c0 -75 -44 -120 -103 -120zM566 59c20 0 38 18 38 61c0 42 -18 62 -38 62s-38 -19 -38 -62c0 -42 17 -61 38 -61zM118 276c-59 0 -103 45 -103 120c0 74 44 120 103 120c58 0 103 -45 103 -120s-44 -120 -103 -120zM118 335
c20 0 38 18 38 61c0 42 -18 62 -38 62s-38 -19 -38 -62c0 -42 17 -61 38 -61z" />
    <glyph glyph-name="plus.ostnum" 
d="M574 185h-164v-167h-139v167h-164v136h164v167h139v-167h164v-136z" />
    <glyph glyph-name="minus.ostnum" 
d="M569 185h-457v136h457v-136z" />
    <glyph glyph-name="divide.ostnum" 
d="M430 66c0 -52 -39 -91 -91 -91c-51 0 -90 39 -90 91c0 51 39 90 90 90c52 0 91 -39 91 -90zM430 429c0 -51 -39 -91 -91 -91c-51 0 -90 40 -90 91c0 52 39 91 90 91c52 0 91 -39 91 -91zM571 199h-461v98h461v-98z" />
    <glyph glyph-name="multiply.ostnum" 
d="M555 370l-115 -117l115 -116l-98 -99l-117 116l-116 -116l-98 99l115 116l-115 117l98 98l116 -116l117 116z" />
    <glyph glyph-name="equal.ostnum" 
d="M102 299v132h477v-132h-477zM102 94v132h477v-132h-477z" />
    <glyph glyph-name="less.ostnum" 
d="M587 9l-493 187v122l493 187v-137l-326 -111l326 -111v-137z" />
    <glyph glyph-name="greater.ostnum" 
d="M587 196l-493 -187v137l326 111l-326 111v137l493 -187v-122z" />
    <glyph glyph-name="degree.ostnum" horiz-adv-x="340" 
d="M318 358c0 -84 -67 -151 -152 -151c-84 0 -152 67 -152 151c0 85 68 152 152 152c85 0 152 -67 152 -152zM224 358c0 33 -25 58 -58 58s-58 -25 -58 -58s25 -57 58 -57s58 24 58 57z" />
    <glyph glyph-name="space" unicode=" " horiz-adv-x="305" 
 />
    </font>
</defs>
</svg>
